<?xml version="1.0" encoding="UTF-8" standalone="no"?>
<!DOCTYPE svg PUBLIC "-//W3C//DTD SVG 1.1//EN" "http://www.w3.org/Graphics/SVG/1.1/DTD/svg11.dtd">
<svg id="us-canada-map" width="100%" height="100%" viewBox="0 0 1250 900" version="1.1" xmlns="http://www.w3.org/2000/svg" xmlns:xlink="http://www.w3.org/1999/xlink" xml:space="preserve">
    <g id="CA.AB" transform="matrix(1,0,0,1,-442.724,-553.921)">
        <path d="M924.7,912.5C884.6,901.9 888.9,903.5 886.5,898.2L884.5,893.7L886.1,885.4C887.8,876.7 887.7,874.4 885.4,869.9C884.6,868.4 882.4,864 880.5,860.2C878.6,856.4 876.3,851.2 875.5,848.6C874.6,846 872.9,842.4 871.7,840.6C870.5,838.8 869.3,836.1 869,834.6C868.7,833.1 867.5,830.8 866.4,829.4C865.2,828 864.3,826.6 864.3,826.1C864.3,825.7 863.6,824.3 862.7,823.1C861.8,821.8 860.8,818.8 860.4,815.9C860,812.7 859,809.9 857.9,808.2C856.9,806.8 855.7,804.7 855.3,803.5C854.9,802.4 853.4,800.7 851.9,799.7C849.3,798 848.3,795.3 850,794.2C850.4,793.9 850.8,791.9 850.8,789.6C850.8,785.5 855.7,771.4 889.2,679.4L892.2,671.1L908.8,676.6C917.9,679.6 931.8,684 939.7,686.3C947.5,688.6 961.4,692.6 970.4,695.3C979.4,697.9 986.9,700.2 987,700.3C987.5,700.8 981.4,727.3 979.9,733.2C976.1,749.1 971.9,766.4 966.3,790.1C963.8,800.6 960.9,812.6 959.9,816.7C954.9,837.5 950.4,856.1 948,866.2C935.3,919.6 936.3,915.4 935.6,915.2C935.4,915.3 930.5,914.1 924.7,912.5Z"/>
    </g>
    <g id="CA.BC" transform="matrix(1,0,0,1,-441.292,-553.921)">
        <path d="M765,873.3C760.2,870.3 753,860.8 753,857.6C753,855.8 752.6,855.2 750.8,854.5C748.6,853.7 746.9,850.7 745.9,846.1C745.6,844.9 744.7,842.7 743.7,841.2C742.7,839.7 741.4,837.1 740.7,835.2C740,833.3 738,829.5 736.3,826.7C734.5,823.6 732.9,819.8 732.3,816.9C731.8,814.3 730.9,811.1 730.3,809.8C729.3,807.4 729.4,807.3 731.5,805.5C732.7,804.5 734.4,803.7 735.2,803.6C736.7,803.6 741.2,807.9 748.4,816.3C750.7,818.9 752.9,821.5 753.3,821.9C753.7,822.3 755.2,824.2 756.7,826.1C758.1,828 759.5,829.6 759.7,829.9C760.7,830.8 762.6,837.4 763.1,841.8C763.5,846 764.1,847.2 767.3,851.5C771.6,857.2 772,858.1 772.7,863.9C773,866.3 773.7,869.6 774.2,871.1C774.8,872.7 775,874.1 774.8,874.4C773.8,875.7 767.5,874.9 765,873.3Z"/>
        <path d="M883.8,901.6C883.1,901.4 867.7,896.6 855.7,892.9C851.6,891.6 807.7,875.2 789.7,868.2C786.6,867 783.1,865.6 781.8,865.2C778.9,864.2 778.4,863.4 778.4,859.9C778.4,858 777.9,856.7 776.8,855.8C772.4,852.2 770.9,850.4 770.9,848.9C770.9,848 770.6,847.3 770.3,847.3C768.5,847.3 765.9,843.3 765.4,839.8C764.7,834.2 762.2,829.3 757.7,824.8C753.7,820.8 753.7,820.7 754.1,817.1C754.5,814.2 754.3,813.5 753.4,813.5C752.8,813.5 752.1,813.2 752,812.9C751.9,812.6 750.1,811.4 748.2,810.2C746.2,809.1 744.6,807.7 744.6,807.2C744.6,806.7 744.4,805.6 744.2,804.8C743.8,802.8 743.7,801.4 743.9,793.4C744,786.7 744.1,786.4 746.3,784.6C748.4,782.8 748.5,782.5 747.8,780.3C747.3,779 747,776.6 747,775C747,772.8 746.3,771 744,767.7C741.5,764.1 741,763 741.4,760.8C741.6,759.4 742.5,757.7 743.4,757C745.1,755.6 745,754.4 742.4,749.3C741.1,746.7 740.9,744.9 740.9,736.6C740.9,727.2 741,726.8 742.8,725C743.8,724 746.5,722.4 748.7,721.6C754.1,719.6 758.3,715.7 758.3,712.9C758.3,709.9 759.9,706.4 762.7,703.3C764.8,701 765,700.2 765,696.1C765,691.9 764.8,691.3 762.8,689.5C760.2,687.2 755.7,678.7 754.5,673.8C753.8,670.9 753.9,669.3 755.7,662C757.5,654.5 757.6,653.1 756.9,649.3C756.4,647 755.9,641.9 755.7,637.9C755.5,634 755.1,630.1 754.9,629.2C754.7,628.3 754.4,626.3 754.1,624.7C753.9,623.1 752.7,617.6 751.4,612.4C750.2,607.2 749,602.3 748.8,601.3C748.6,600.2 747.4,599.2 745.7,598.5C740.4,596.3 739.8,596.3 738.3,598.8C737.3,600.4 735.7,601.5 732.4,602.7C729.9,603.6 726.5,605 724.9,605.8C723.3,606.6 721.9,607.2 721.8,607.2C721.7,607.2 721.9,606.1 722.3,604.8C723.3,601.1 722.6,592 721.2,589.8C719.7,587.4 719.9,580.5 721.5,580.8C722,580.9 729.6,585.7 738.3,591.4C762.1,606.9 788,622.7 800.6,629.3C806.8,632.5 812.2,635.4 812.6,635.7C814.6,637.1 837.8,648.9 846.4,652.8C851.8,655.3 863.4,660.1 872.3,663.5C881.2,666.9 888.7,669.9 889,670.2C889.3,670.5 889.3,671.5 888.8,672.5C888.4,673.5 884.5,684.3 880.1,696.4C875.7,708.6 870.8,722.1 869.3,726.4C851.9,773.7 848.3,784.4 848.3,788.2C848.3,790.5 847.8,792.8 847.2,793.7C845.6,796 846.5,799.3 849.3,801.1C852.8,803.3 857.3,811.8 857.9,817C858.2,819.9 859.1,822.4 860.5,824.7C861.7,826.5 862.6,828.4 862.6,828.8C862.6,829.2 863.4,830.4 864.4,831.5C865.4,832.6 866.6,835 867.1,837C867.6,839 868.4,840.8 868.7,841C869.6,841.6 872.8,848 873.4,850.7C873.7,851.9 876.3,857.8 879.3,863.8C882.4,870.1 884.6,875.6 884.7,876.9C884.7,878.2 884.1,882.4 883.4,886.2C882,893.4 882.2,896.6 884.2,899.6C885.2,901.4 885.2,902 883.8,901.6Z"/>
        <path d="M711.9,760.1C708.9,753 707.7,744.7 708.2,732.7C708.5,725.7 709,721.5 709.6,720.8C710.1,720.2 710.6,719.1 710.6,718.4C710.6,716.4 713.9,716.5 716.9,718.6C720.5,721 725.3,725.8 725.3,726.9C725.3,727.4 722.3,731 718.5,734.8C710.6,743 710.5,743.4 713.6,754.7C714.6,758.4 715.5,762 715.5,762.8C715.5,765.3 713.6,763.9 711.9,760.1Z"/>
    </g>
    <g id="CA.MB" transform="matrix(1,0,0,1,-442.724,-553.921)">
        <path d="M1070,715.9L1069.5,720.6C1069.2,723.2 1068.9,725.9 1068.7,726.5C1068.5,727.1 1068.3,729.5 1067.9,731.7C1067.6,734 1067.3,736.3 1067.1,736.9C1066.9,737.5 1066.3,742.4 1065.6,747.7C1064.4,756.8 1062.2,767.6 1061.8,768.3C1061.3,769 1060.7,773.9 1060.4,779.3C1060.1,784.7 1059.8,790.4 1059.6,792.1C1059.4,793.8 1059.1,798.1 1058.9,801.9C1058.6,805.6 1058.3,810.7 1058.1,813.1C1057.3,823.4 1057,827.7 1056.6,833.3C1056.4,836.6 1056,841 1055.8,843.1C1055.6,845.2 1055.3,850.2 1055,854.3C1054.7,858.4 1054.4,863.1 1054.3,864.8C1054.2,866.5 1053.8,871.3 1053.5,875.7C1053.2,880 1052.9,884.8 1052.7,886.2C1052.5,887.6 1052.2,892.7 1051.9,897.4C1051.6,902.1 1051.3,906.5 1051.2,907.2C1050.8,909.2 1049.8,926.2 1049.7,931.2L1049.7,936.1L1054.2,936.5C1061.4,937.2 1068.3,938 1070.3,938.3C1071.3,938.4 1074,938.8 1076.3,939C1080.7,939.5 1083.2,939.8 1089.8,940.6C1092.1,940.9 1097.1,941.3 1101,941.6C1104.9,941.9 1111.6,942.2 1115.7,942.3L1123.3,942.5L1123.8,938.9C1124,936.9 1124.4,931.2 1124.6,926.3C1124.8,921.3 1125.2,914.9 1125.3,912.1C1125.5,909.2 1125.8,901.8 1126.1,895.6C1126.9,874.2 1127.2,871.9 1129,869C1129.9,867.5 1135.2,861.4 1140.8,855.4C1146.4,849.5 1152.5,842.9 1154.3,840.9C1156.1,838.8 1157.9,836.8 1158.4,836.3C1165.6,828.2 1169.1,824.2 1173,819.5C1175.6,816.4 1180,811.3 1182.9,808.2C1185.8,805 1189.3,801.1 1190.7,799.6C1192.1,798 1195,794.8 1197.1,792.6C1199.2,790.3 1200.9,788.1 1200.9,787.7C1200.9,786.9 1197,785.2 1193.6,784.7C1188.4,783.8 1187,783.4 1186.1,782.1C1185.4,781.1 1184.2,780.8 1180.6,780.9C1178.1,781 1175.8,781.4 1175.5,781.8C1174.9,782.7 1166.2,783.8 1164.5,783.2C1163.7,782.9 1163.6,782.3 1164,781.2C1164.6,779.6 1164.5,778.7 1162.3,768.6C1160.8,761.4 1160.4,759.2 1159.9,755.1C1159.3,750.4 1157.4,748.9 1149.5,747.3C1144.5,746.2 1142.8,745.6 1142.1,744.3C1141.2,742.6 1141.2,736.7 1142.1,728.6L1142.7,723.5L1138.7,723.4C1136.5,723.3 1134.5,723.2 1134.2,723.2C1133.9,723.1 1131.1,722.8 1128,722.5C1124.9,722.2 1121.9,721.8 1121.2,721.7C1120.6,721.6 1117.7,721.3 1114.9,720.9C1112,720.6 1109,720.2 1108.1,720.1C1107.2,720 1104.5,719.7 1102.1,719.4C1099.6,719.1 1094.9,718.6 1091.6,718.3C1088.3,718 1083.6,717.4 1081.1,717.2C1078.6,717 1075,716.6 1073.1,716.3L1070,715.9Z"/>
    </g>
    <g id="CA.NB" transform="matrix(1,0,0,1,-446.279,-553.921)">
        <path d="M1503.1,978.7C1501.4,978.3 1499.3,975.9 1498.1,973C1497.6,971.9 1496.5,970.7 1495.5,970.5C1492.5,969.7 1487.7,957.2 1487.6,949.9C1487.6,947.4 1487.1,946.1 1485.9,944.9C1483,942.1 1479.1,940.1 1476.6,940.1L1474.2,940.1L1473.9,935.4C1473.7,932.8 1473.7,930.5 1473.9,930.2C1474.1,929.9 1476.3,929.6 1478.8,929.6C1484.3,929.5 1487.4,928.5 1490.5,925.7C1491.9,924.4 1495,923 1498.4,922.1C1503.6,920.7 1504.2,920.7 1506.8,921.7C1509.5,922.8 1509.7,922.8 1511.1,921.3C1514.1,918 1522.9,915.4 1522.8,917.8C1522.8,918.3 1522.3,919.6 1521.7,920.6C1520.1,923.4 1520.3,929.8 1522,931.9C1522.8,932.9 1523.6,934.8 1523.9,936.2C1524.2,937.7 1525.8,940 1527.9,942C1531.2,945.2 1531.6,945.3 1536,945.3C1538.5,945.3 1540.8,945.5 1541,945.7C1541.2,945.9 1539.8,947.9 1537.7,950C1535.6,952.1 1533.1,955.7 1532.1,957.9C1529.4,963.5 1520,973 1517.1,973C1515.5,973 1514.7,973.5 1514,975.1C1512.8,978.4 1507.9,979.9 1503.1,978.7Z"/>
    </g>
    <g id="CA.NL" transform="matrix(1,0,0,1,-446.279,-553.921)">
        <path d="M1586.8,896.3C1584.7,893.7 1584.8,890.5 1587,887.5C1589.3,884.3 1589.6,880.5 1587.5,879.9C1585.6,879.3 1585.6,877.7 1587.6,874.5C1589,872.2 1589.1,871.2 1588.7,865.4C1587.9,854.9 1588.2,842.6 1589.4,830.4C1589.5,829.6 1589.8,826.2 1590.1,822.9C1590.8,816 1592.1,813.4 1597.5,809.3C1600.4,807.1 1601.2,806.8 1602.2,807.5C1605,809.8 1605.6,812.5 1605.3,821.6C1605.1,826.5 1604.8,830.8 1604.6,831.1C1604.4,831.5 1604,833.8 1603.7,836.2L1603.2,840.7L1605.1,838.5C1606.2,837.3 1607,836 1607,835.7C1607.1,834.6 1610.2,834.3 1612.7,835.2C1615.5,836.2 1615.5,836.3 1615.3,840.2L1615.2,842.6L1619,842.6C1621.1,842.6 1622.9,842.3 1623.2,842C1623.4,841.6 1625.2,840.9 1627.2,840.4C1629.2,839.9 1632.5,838.6 1634.5,837.7C1638.2,836 1641.6,835.9 1644.7,837.5C1646.3,838.3 1647.1,842.4 1645.9,844.2C1645.1,845.4 1645.2,845.9 1646.5,847.2C1647.8,848.5 1648.5,848.6 1651.8,848.1C1656.6,847.3 1657.4,847.6 1657.4,850.1C1657.4,852.2 1655.9,854.9 1653.4,857.1C1652.6,857.8 1652.3,858.4 1652.8,858.4C1653.3,858.4 1653.7,859.5 1653.7,861C1653.7,862.4 1653.9,864.1 1654.2,864.8C1654.7,866.2 1656,866.4 1656,865.1C1656,863.7 1659.7,859.2 1660.9,859.2C1661.5,859.2 1662.4,860.5 1662.9,862.2C1663.9,865.6 1664.9,865.9 1668.1,863.6C1669.3,862.7 1670.6,862.2 1670.9,862.5C1671.2,862.8 1671.6,865.3 1671.6,868.1C1671.7,870.8 1671.8,874.4 1671.9,875.9C1672.1,879.9 1669,884.3 1665.9,884.6C1664,884.7 1663.4,884.4 1662.7,882.9C1661.6,880.5 1661.1,880.5 1659.8,882.9C1657.8,886.7 1656.1,884.3 1655.2,876.4C1654.5,870.6 1653.7,868.3 1652.2,868.3C1651.8,868.3 1651.5,869.5 1651.5,871C1651.5,873.2 1650.9,874.3 1648.6,876.5C1645.9,879 1645.6,879.8 1644.9,884.8C1643.9,892.1 1642.1,894 1636.2,894.1C1631.1,894.2 1630.7,893 1634.7,889.3C1636.8,887.3 1637.3,886.3 1637.3,883.9C1637.3,881.1 1637.2,881 1635.7,881.8C1632.9,883.3 1629.6,884 1628.7,883.3C1627.8,882.6 1626.5,883.1 1619,887.6C1616.7,889 1613.9,890.2 1612.8,890.4C1611.7,890.6 1609.6,890.9 1608.1,891.2C1606.7,891.4 1602.1,893 1598,894.7C1593.8,896.4 1590.1,897.9 1589.6,898.1C1588.8,898.2 1587.7,897.4 1586.8,896.3Z"/>
        <path d="M1493.6,842.4C1493.5,842.3 1492.1,842 1490.5,841.8C1488.9,841.6 1487,840.8 1486.2,840.1C1485.1,839.1 1483.9,838.9 1480.4,839.2C1474.9,839.7 1474.3,839.4 1473.8,836.5C1472.9,831.7 1472.8,831.1 1472.8,830.2C1472.8,829.7 1472.2,828.8 1471.6,828.2C1470.6,827.2 1470.2,827.2 1468,828.5C1466.7,829.3 1464.9,830 1464,830C1462.1,830 1459.5,827.4 1460.6,826.7C1461.5,826.2 1461.7,821.7 1461,819.1C1460.7,818.1 1459.4,817 1457.4,816.3C1451.9,814.2 1446,805.1 1447.9,801.6C1448.3,800.8 1449,800.1 1449.4,800.1C1450.2,800.1 1451.5,797.2 1451.9,794.7C1452,793.9 1452.8,792.7 1453.7,792C1454.6,791.3 1455.6,789.9 1456,788.8C1456.7,786.9 1456.9,786.8 1460,787.5C1461.8,787.9 1464.1,788.8 1465.1,789.5C1467.7,791.3 1470.5,790.8 1472.2,788.1C1473.6,785.9 1473.8,785.9 1477.4,786.4C1479.5,786.7 1481.7,786.9 1482.5,786.9C1483.6,786.9 1483.8,787.3 1483.5,789.5C1483.3,790.9 1483.1,792.2 1482.9,792.3C1479.6,794.5 1477,796.8 1476.7,797.9C1476.5,798.6 1475.3,799.9 1474,800.7C1471.4,802.5 1471.2,803.4 1473.2,805.2C1475,806.8 1479.4,806.3 1480.9,804.2C1482.7,801.7 1486.4,800.4 1489.2,801.2C1492.7,802.3 1495.5,801 1497,797.5C1498.3,794.6 1498.5,790.7 1497.3,789.5C1496.9,789.1 1496,789.5 1495.1,790.4C1494.1,791.4 1492.6,792 1491,792C1485.4,792 1484.9,790.5 1488.3,784C1489.5,781.7 1490.5,779 1490.5,778.1C1490.5,775.8 1488,770.1 1486.5,768.9C1485.8,768.3 1485.3,767.3 1485.3,766.7C1485.3,764.6 1481.6,758.1 1479.1,756C1477.5,754.6 1476.6,753 1476.2,750.8C1475.9,749 1475.2,745.4 1474.8,742.7C1474.3,740 1473.9,735.6 1473.9,732.9C1473.8,727.3 1472.4,724.2 1469.6,723.6C1468.5,723.4 1466.6,722.5 1465.2,721.7C1462.5,720 1462,717.8 1463.9,715.1C1464.7,714 1464.8,713 1464.4,711.7C1463.7,709.9 1463.8,709.2 1464.6,705.2C1465.2,702.6 1464.8,702.5 1457.9,702.8C1456.3,702.9 1455.1,702.7 1455.4,702.5C1455.6,702.3 1455.2,699.7 1454.5,696.7C1453.5,692.4 1452.9,691.2 1451.8,691.1C1451,691 1450,690.3 1449.5,689.6C1448.4,687.9 1445.3,676.6 1445.8,676.2C1446.6,675.4 1455.3,683.1 1458.3,687.3C1460.1,689.7 1462.1,691.7 1462.8,691.7C1463.5,691.7 1464.8,692.7 1465.6,693.9C1466.5,695.1 1468.3,696.8 1469.7,697.7C1471.3,698.7 1472.8,700.6 1473.8,703C1474.8,705.4 1475.9,706.7 1476.7,706.8C1477.4,706.8 1478.7,707.9 1479.6,709.3C1480.9,711.2 1481.9,711.9 1484.3,712.3C1486.9,712.7 1487.6,713.2 1489,716C1489.9,717.7 1490.8,720.5 1491.1,722.2C1491.5,725 1491.7,725.2 1495,726.2C1496.9,726.7 1499,727.8 1499.7,728.6C1500.9,729.9 1500.9,730.3 1499.9,733.7C1499,736.8 1499,737.7 1499.8,739.2C1500.3,740.2 1501,741.9 1501.2,742.9C1501.5,744.5 1502.7,745.2 1509.7,747.6C1514.1,749.1 1518.4,750.4 1519.1,750.4C1519.8,750.4 1521.7,751.8 1523.3,753.5L1526.2,756.6L1532.9,756.9C1536.6,757.1 1540.8,757.7 1542.4,758.3C1545.3,759.4 1547.1,759 1549.4,756.7C1550.1,756 1551.5,756.1 1555.8,757.3C1558.8,758.1 1561.5,759.1 1561.7,759.5C1562.7,761 1561.4,763.8 1559.4,764.6C1558.2,765.1 1555.5,767.5 1553.3,770C1551.1,772.5 1548.3,775.6 1547,776.9C1545.7,778.2 1543.2,781 1541.2,783C1537.6,786.8 1536,791.3 1537.9,792C1539.5,792.6 1547.2,784.5 1547.7,781.6C1548,779.8 1549.9,777.2 1553.9,772.9C1559.1,767.4 1559.9,766.8 1562.4,766.8C1564.7,766.8 1565.5,767.2 1566.9,769.3C1568.3,771.4 1568.9,771.7 1570.5,771.2C1574,770.2 1577.8,770.5 1579.6,771.9C1580.6,772.7 1583.4,774.4 1585.9,775.8C1588.4,777.2 1590.5,778.4 1590.6,778.4C1590.7,778.5 1590.4,779.4 1589.9,780.5C1588.6,783.3 1590.1,787.8 1593.3,791C1595.8,793.5 1598.9,798.8 1598.9,800.5C1598.9,801.7 1593.8,809.6 1591.2,812.3L1588.9,814.7L1585.8,810.8C1584.1,808.7 1582.4,806.7 1582,806.4C1581.6,806.1 1580.1,806.5 1578.6,807.2C1577.1,807.9 1574.2,809 1572,809.5C1569.8,810 1565.6,811.4 1562.6,812.5C1559.6,813.7 1553.4,816 1548.9,817.7C1544.4,819.4 1539,821.5 1537.1,822.3C1530,825.3 1514.4,830.7 1511.4,831.2C1509,831.6 1507.6,831.3 1504.2,829.7C1501.9,828.6 1499.7,827.9 1499.3,828.2C1498.9,828.5 1498.5,830.1 1498.4,831.7C1498.3,835.4 1497.5,842.1 1497.1,842.5C1497.4,842.3 1493.9,842.7 1493.6,842.4Z"/>
    </g>
    <g id="CA.NS" transform="matrix(1,0,0,1,-446.279,-553.921)">
        <path d="M1528.7,1003C1524.3,1002 1522.2,999.6 1520.4,993.4C1519.5,990.4 1519.4,988.6 1519.9,987.3C1521,984.4 1526,977.1 1529.2,973.5C1530.8,971.8 1532.6,969.7 1533.1,968.9C1533.7,968.1 1535,967.2 1536,967C1538.1,966.5 1544.6,962.1 1544.6,961.2C1544.6,960.4 1541.2,961.7 1537.2,964.1C1530.3,968.1 1531.2,961.6 1538.9,952.9C1542.2,949.1 1543,948.6 1545.3,948.6C1552.4,948.8 1560.5,947.5 1563.1,945.8C1564.7,944.7 1566.2,944.2 1567,944.5C1567.7,944.8 1569.8,945.1 1571.7,945.1C1575.7,945.2 1578.8,947 1580,949.7C1580.8,951.5 1580.5,951.9 1576,956.4C1573.3,959.1 1570.7,961.8 1570,962.4C1567.3,965.2 1560.7,970.2 1559.2,970.6C1558.2,970.8 1556.6,972.6 1555.3,974.8C1553.3,978.2 1552.9,978.5 1550.8,978.2C1548.9,977.9 1548.3,978.2 1547.6,979.7C1547.1,980.7 1546.8,981.9 1546.8,982.3C1546.8,982.7 1545.8,985.5 1544.5,988.5C1542.8,992.6 1541,995.1 1537.3,998.9C1534.6,1001.7 1532.3,1003.9 1532.2,1003.8C1532.4,1003.9 1530.7,1003.5 1528.7,1003Z"/>
        <path d="M1579.2,946.1C1578.6,945.6 1576.4,943.4 1574.4,941.3C1571.7,938.4 1571,937.1 1571.5,936.4C1571.9,935.9 1573.3,932.3 1574.6,928.5C1577.2,920.8 1579.6,915.6 1580.7,915.6C1582,915.6 1583.7,919 1583.7,921.6C1583.7,925.9 1584.4,927.5 1586.6,928C1589.2,928.6 1592.7,932 1592.7,933.9C1592.7,934.7 1591.7,937 1590.4,939C1588.7,941.6 1587.6,942.6 1586.3,942.6C1585.2,942.6 1584,943.5 1583,944.8C1581.2,947.3 1580.9,947.4 1579.2,946.1Z"/>
    </g>
    <g id="CA.ON" transform="matrix(1,0,0,1,-446.279,-553.921)">
        <path d="M1293.1,1078.3C1293.9,1076.8 1294.9,1076.1 1297,1075.7C1298.6,1075.4 1300.3,1074.9 1300.8,1074.6C1302.2,1073.7 1302.9,1068.5 1301.7,1067.7C1301,1067.3 1301,1066.7 1301.5,1065.7C1301.9,1064.9 1302.5,1063 1302.7,1061.5C1303,1060 1303.8,1058.3 1304.6,1057.7C1307.3,1055.8 1309.7,1051.4 1309.4,1048.8C1309.3,1047.4 1309.1,1043.5 1309,1040.2C1308.9,1034.5 1309.1,1033.8 1311.6,1029.3L1314.3,1024.5L1313,1021.5C1312.3,1019.9 1310.9,1017.9 1310.1,1017.1C1308.5,1015.7 1307.9,1013.7 1309.1,1013.7C1309.4,1013.7 1311.7,1015.7 1314.1,1018.2C1318.1,1022.3 1322.1,1024.9 1326.2,1026C1330.3,1027.1 1332.6,1020.2 1329.5,1015.8C1327.5,1012.9 1319.3,1004.1 1317.2,1002.5C1316.4,1001.9 1313.5,1001.2 1310.8,1000.9C1308.1,1000.6 1304,999.8 1301.7,999.1C1298.8,998.3 1294.4,997.9 1286.6,997.9C1276.3,997.9 1275.5,997.8 1274.5,996.4C1273.9,995.6 1271.6,993.9 1269.5,992.8C1266.3,991.1 1265.5,990.4 1265.5,988.8C1265.5,987.7 1264.4,985.8 1263.3,984.5C1261.4,982.6 1261.3,982.2 1262.4,981.8C1264.1,981.2 1264,979.6 1262.1,976.9C1261.3,975.7 1259.9,973.3 1259.1,971.4C1257.8,968.5 1257.3,968 1254.8,967.6C1251.9,967.1 1243.9,963.3 1242,961.5C1241.4,961 1240.9,959.2 1240.8,957.6C1240.7,956 1240.4,953.7 1240,952.6L1239.4,950.4L1233.3,950.8C1227.7,951.2 1226.9,951 1222.9,949L1218.6,946.8L1215.5,948.8C1212.7,950.6 1212.5,950.9 1213.6,951.9C1214.7,953 1214.3,953.4 1209.8,956.4C1207,958.2 1203.6,961 1202.1,962.6C1199.1,965.8 1198.7,965.9 1187.9,964.1C1184.8,963.6 1179.9,963.1 1177,963C1172,962.9 1166.9,961.1 1166.9,959.5C1166.9,959.2 1166,958.9 1165,958.9C1163.8,958.9 1162,957.9 1160.3,956.3C1157.6,953.7 1157.5,953.7 1150.7,953.7C1145.7,953.7 1143.5,953.4 1142.7,952.6C1142.1,952 1140.3,951.3 1138.7,951C1134.6,950.3 1134.1,949.7 1133.6,944.5C1133.1,940.2 1132.9,939.7 1130.7,938.6C1128.4,937.4 1130.6,937.2 1130.6,933C1130.7,928.2 1131.6,908.1 1132,900.8C1132.2,898.3 1132.5,890.9 1132.8,884.4C1133.4,869.4 1132.1,871.8 1150,853.2C1153.8,849.3 1159,843.6 1161.7,840.5C1164.4,837.5 1166.9,834.6 1167.3,834.1C1167.7,833.6 1172.1,828.5 1177,822.8C1181.9,817.1 1187.7,810.4 1189.7,808.1C1199.8,796.9 1203.6,791.8 1205,790.1L1206.5,788.2L1209,789.6C1212.1,791.3 1215.6,796.1 1215.6,797.2C1215.6,797.7 1216.7,799.1 1218.1,800.4C1219.9,802.2 1221.7,803 1225,803.7C1228.1,804.3 1230.2,805.2 1231.7,806.7C1233.8,808.7 1235.7,809.4 1239.2,809.6C1240,809.6 1242.6,811.3 1244.8,813.3L1248.9,816.9L1263,817.4C1275.2,817.8 1277.5,818.1 1280.2,819.5L1283.3,821.1L1282.8,827.6C1282.5,831.2 1282,834.4 1281.6,834.7C1281.2,835.1 1281.6,836.4 1282.4,837.7C1283.2,839 1284,841.6 1284.3,843.4C1285.1,849.4 1285.2,850 1285.9,851.4C1286.3,852.2 1286.5,854.3 1286.4,856.2C1286.2,859 1286.6,860.3 1288.4,863.2C1291.3,867.8 1300.3,878.7 1301.2,878.7C1302.9,878.7 1307.7,884.9 1309.1,888.8L1310.5,893.1L1315.1,892.7L1319.7,892.3L1320.2,896.1C1321,902.2 1321.3,904.9 1321.7,909.3C1321.9,911.6 1322.3,914.3 1322.4,915.3C1322.6,916.3 1322.9,919.2 1323.2,921.7C1323.5,924.2 1323.8,927 1323.9,928.1C1324.3,930.6 1325,936.5 1325.4,941.2C1325.6,943.3 1325.9,946.1 1326.1,947.6C1327.2,956.6 1328,962.8 1328.4,966.6C1328.7,969 1329.9,973.3 1331.1,976.1C1333,980.3 1334,981.6 1337.7,984.2C1342.5,987.6 1349.3,990 1356.1,990.7C1359.2,991 1361.7,991.8 1364,993.4C1365.9,994.6 1368.1,995.6 1368.9,995.6C1369.7,995.6 1371.2,996.9 1372.4,998.5L1374.4,1001.4L1380.9,1001C1386.5,1000.7 1388,1000.3 1392.1,998C1396.8,995.4 1400.6,994.2 1400.7,995.3C1400.8,996.4 1401.2,998.4 1401.7,999.9C1402.1,1001.2 1401.6,1002 1399.4,1003.9C1394.7,1007.9 1390.8,1012 1385.3,1018.9C1382.4,1022.5 1379.7,1025.4 1379.3,1025.5C1378,1025.6 1375,1028.4 1375.5,1029.1C1376.4,1030.5 1370.4,1032.8 1365.4,1032.9C1356.4,1033.2 1343.6,1038.5 1340.8,1043C1338.1,1047.5 1338.1,1048.6 1340.9,1049.8C1342.3,1050.4 1344.1,1050.7 1344.9,1050.5C1346,1050.2 1346.7,1050.7 1347.6,1052.7C1349.1,1055.8 1348.6,1056.2 1343.5,1056.2C1340.5,1056.2 1332.3,1059.3 1330.2,1061.2C1329.2,1062.1 1329.3,1062.4 1330.9,1063.6L1332.8,1065L1330.7,1065.5C1329.6,1065.8 1327.2,1065.6 1325.3,1065.2C1318.2,1063.4 1316.5,1064.2 1307.6,1073.5C1302.7,1078.6 1301.6,1079.4 1299.4,1079.5C1298,1079.5 1295.7,1079.7 1294.4,1079.8L1292,1080L1293.1,1078.3Z"/>
    </g>
    <g id="CA.PE" transform="matrix(1,0,0,1,-446.279,-553.921)">
        <path d="M1556.5,945C1556.3,944.8 1553.3,944.5 1549.9,944.3C1546.5,944.2 1541.8,943.5 1539.5,942.8C1534.5,941.3 1533.4,941.1 1532,941C1528.9,940.8 1528.6,939.7 1530.5,935.8C1531.5,933.7 1532.7,932 1533.3,932C1533.8,932 1535.8,933.5 1537.7,935.3C1540.4,937.9 1541.3,938.4 1541.9,937.5C1542.4,936.9 1544.3,936.5 1546.4,936.5C1548.4,936.5 1550.7,936.2 1551.4,935.8C1553.8,934.5 1560.5,932.8 1560.9,933.4C1561.1,933.7 1560.8,934.9 1560.2,936C1559.6,937.1 1559.1,939.5 1559,941.4C1558.7,944.4 1557.6,946.1 1556.5,945Z"/>
    </g>
    <g id="CA.QC" transform="matrix(1,0,0,1,-446.279,-553.921)">
        <path d="M1405.1,1000.4C1404.4,999.3 1403.7,997.1 1403.6,995.7C1403.3,993.2 1403.1,993.1 1400.2,992.9C1397.1,992.7 1393.1,994.2 1388.6,997.3C1387.1,998.4 1385.3,998.7 1381,998.7C1375.4,998.7 1375.4,998.7 1373.6,996.1C1372.6,994.7 1371.2,993.5 1370.4,993.5C1369.6,993.5 1367.3,992.4 1365.2,991.2C1362.5,989.6 1360.1,988.8 1357.2,988.5C1350.9,988 1343.8,985.6 1339.5,982.7C1336.3,980.5 1335.2,979.1 1333.3,975C1331.9,972 1330.8,968 1330.5,965.1C1330.2,962.4 1329.9,959.2 1329.7,958C1329.5,956.8 1329,952.5 1328.6,948.6C1328.1,944.7 1327.6,940.3 1327.5,938.8C1327.3,937.4 1327,934.7 1326.8,932.8C1326.6,930.9 1325.4,920.7 1324.2,909.9C1323,899.2 1321.8,889.5 1321.5,888.4C1321.1,886.7 1321.4,886.4 1323.4,886C1325.6,885.6 1325.7,885.4 1325.2,883.2C1324.8,881.4 1325.1,880.2 1326.8,877.8C1327.9,876.1 1328.9,873.8 1328.9,872.8C1328.9,871.8 1327.5,868 1325.8,864.5C1324.1,861 1322.4,856.8 1321.9,855.1C1321.4,853.4 1320.5,851.3 1319.8,850.3C1318.9,849.1 1318.6,847.3 1318.7,844.9C1318.9,841 1316.9,836.7 1314.2,835.3C1313.3,834.8 1312.8,833.7 1312.8,832.5C1312.8,831.4 1312.1,829.6 1311.3,828.6C1310.5,827.6 1309.8,826.4 1309.8,826C1309.8,824.9 1313.4,821.6 1317.7,819C1319.8,817.7 1322.5,815.4 1323.8,813.8C1325.1,812.2 1327.7,809.3 1329.5,807.3C1331.7,804.8 1333.8,801.4 1335.6,796.9C1338.1,790.8 1338.3,789.6 1338.2,783.8C1338.1,779.1 1337.5,775.8 1336,771.3C1334.9,767.9 1333.7,764.3 1333.5,763.2C1332.7,759.7 1326,752.5 1321.2,750C1315.4,746.9 1310.9,742.5 1310.7,739.5C1310.6,738.3 1311.1,736 1311.8,734.4C1312.5,732.8 1313.2,731 1313.3,730.4C1313.4,729.8 1314.2,728.7 1315,728C1316.2,727.1 1316.5,725.9 1316.5,723.2C1316.5,720.7 1316.9,719.2 1318,718.1C1319.4,716.6 1319.4,716.3 1318.4,713.4C1317.8,711.7 1317.2,709.5 1317,708.4C1316.6,706.1 1314.6,702.2 1312.4,699.2C1310.9,697.2 1310.7,696.1 1310.7,688.4C1310.7,682.3 1310.4,679.5 1309.7,678.6C1309.1,677.9 1307.7,675 1306.5,672.2L1304.4,667.1L1306.3,663.2C1308.1,659.4 1308.4,659.2 1311.8,658.8C1317.4,658 1322.2,658.2 1325.5,659.4C1329.8,660.9 1335.8,661.4 1338.2,660.5C1339.3,660.1 1341.6,658.4 1343.2,656.8C1344.8,655.2 1346.5,653.9 1347,653.9C1348.3,653.9 1362.8,661.6 1367.6,664.8C1371.3,667.2 1372.1,668.2 1372,669.7C1371.9,670.7 1372.4,672.4 1373.1,673.5C1374.2,675.2 1375.2,675.5 1382.1,676.3C1386.3,676.8 1391.4,677.8 1393.4,678.4L1397,679.6L1396.5,683.7C1396,687.7 1396.6,690.3 1400,700.1C1400.4,701.3 1400.8,703.3 1400.7,704.4C1400.7,705.7 1401.3,707.2 1402.5,708.4C1403.5,709.4 1405.1,711.8 1405.9,713.7L1407.4,717.1L1411.1,716.6C1414.7,716.2 1414.9,716.3 1418.8,719.5C1421,721.4 1423.7,723.1 1424.8,723.4C1425.9,723.7 1426.8,724.2 1426.8,724.6C1426.8,726 1428.4,725.2 1431.6,722.1C1434.1,719.7 1435,718.1 1435.4,715.8C1435.8,713.6 1436.4,712.5 1437.6,711.9C1438.6,711.4 1439.7,709.9 1440.3,707.9C1441.5,704.2 1441.3,696.4 1440.1,694.1C1439.6,693.3 1439.4,692.3 1439.5,691.9C1439.6,691.5 1440.1,689.3 1440.5,687.1C1441.2,683.4 1443,680.7 1444.2,681.5C1444.5,681.7 1444.9,683.1 1445.2,684.6C1445.8,688.1 1449.1,693.8 1450.4,693.8C1451.3,693.8 1453.4,701.3 1453.1,703.2C1452.7,705.2 1453.3,705.5 1457.4,705.2L1461.7,704.9L1461.6,709.7C1461.5,712.3 1461.1,715.6 1460.7,717C1460.2,718.6 1460.2,720 1460.6,720.9C1461.5,722.5 1465.5,725.1 1468.2,725.8C1470.7,726.4 1470.9,727.1 1471.4,735.9C1471.6,739.8 1472.3,744.7 1472.8,746.8C1473.4,748.9 1474,751.8 1474.3,753.3C1474.6,755.1 1475.5,756.5 1477.1,757.7C1479.3,759.4 1483,765.9 1483,768.3C1483,769 1483.6,770.1 1484.4,770.8C1485.2,771.5 1486.4,773.4 1487.1,775C1488.4,777.8 1488.4,778 1486.8,781.4L1485.2,785L1481.3,784.6C1479.1,784.4 1476.3,784 1475.1,783.7C1473.1,783.3 1472.6,783.5 1471,785.9C1469,788.8 1467.7,789.2 1465.7,787.4C1465,786.7 1462.3,785.8 1459.8,785.3C1454.8,784.3 1454.3,784.5 1453.5,788.1C1453.2,789.3 1452.2,790.6 1451.1,791C1449.7,791.7 1449.2,792.4 1449.2,794.4C1449.2,796.2 1448.5,797.6 1446.9,799.3C1444.9,801.4 1444.6,802.1 1445,804.8C1445.2,806.5 1445.9,808.7 1446.4,809.8C1448.1,813.1 1452.6,817.6 1455.7,819.1C1459,820.7 1459.5,822.5 1458,826.8C1457.2,829.1 1457.3,829.4 1459.3,831.2C1461.5,833.1 1464.1,833.3 1468.4,831.8C1469.8,831.3 1470,831.6 1470.5,835.2C1470.9,837.9 1471.6,839.7 1472.9,841C1474.6,842.7 1475.1,842.8 1478.9,842.4C1482.3,842 1483.3,842.1 1484.5,843.2C1485.3,843.9 1486.5,844.6 1487.3,844.8C1490.8,845.4 1498.5,845.6 1499.3,845.1C1499.8,844.8 1500.4,843 1500.6,841.2C1501,837 1501.6,832 1501.6,831.7C1501.6,831.6 1503,832.2 1504.8,833.1C1507.1,834.3 1508.7,834.6 1511,834.3C1514.3,833.9 1526.3,829.8 1538.8,824.8C1558.1,817.2 1569.9,812.9 1574.4,811.7C1577,811 1579.7,810.1 1580.2,809.6C1580.8,809.1 1581.5,809 1581.8,809.4C1583.6,811.4 1587.2,816.4 1587.2,816.7C1587.2,816.9 1585.1,818.7 1582.5,820.7C1575.6,825.9 1571.5,830.6 1571.1,833.7C1570.9,835.1 1569.2,839.4 1567.3,843.1C1565.4,846.8 1563.6,850.7 1563.3,851.7C1562.5,854 1550.3,860.5 1542.6,862.8C1539.7,863.6 1533.3,865.5 1528.4,866.9C1499.4,875.3 1485.4,880.6 1482.8,884.1C1482,885.1 1481.1,887.6 1480.7,889.6C1480.3,891.6 1479.3,895.5 1478.5,898.3C1477.2,902.7 1476.7,903.4 1475.2,903.4C1471.6,903.4 1464.3,911.8 1461.7,918.8C1460.9,920.9 1459.2,924.2 1457.9,926.3C1456.6,928.4 1455.3,931.2 1455.2,932.7C1454.4,939 1442.8,957.6 1436.9,962.4C1428.5,969.1 1416.9,981.4 1418,982.5C1418.2,982.7 1421.2,979.6 1424.7,975.7C1428.2,971.8 1433.3,967 1436,964.9C1440.7,961.4 1445.8,956 1449.2,951C1452.3,946.5 1457.7,935.7 1457.7,934.1C1457.7,933.2 1458.1,931.8 1458.6,930.9C1460,928.3 1466.9,919.8 1469.7,917.2C1471.1,915.9 1474,913.3 1476.1,911.4C1478.2,909.5 1481.9,906.7 1484.3,905.2C1486.8,903.7 1491.4,900.7 1494.4,898.6C1498.3,895.9 1501.5,894.3 1504.9,893.5C1509.5,892.4 1510.1,892.4 1514.2,893.6C1517.8,894.7 1518.8,895.4 1519.9,897.5C1522.9,903.2 1522.4,907 1518.1,912.2C1513.9,917.3 1512.4,918.3 1508,918.7C1499.4,919.6 1492.2,921.6 1489.9,923.8C1486.9,926.6 1484.4,927.5 1478.4,927.7C1471.3,928 1470.9,928.5 1471.5,936L1472,942.1L1469.1,942.6C1467.5,942.9 1465.3,942.9 1464.2,942.7C1462.7,942.4 1461.9,942.8 1461,944C1459.5,946.1 1456.3,956.5 1455.8,961.1C1455.6,963 1455,966.7 1454.7,969.3C1454.3,972 1453.8,975.6 1453.6,977.4C1453,983.2 1450.8,988.1 1447.8,990.2C1446.3,991.3 1444.3,993.2 1443.4,994.6C1442.5,995.9 1441,997.2 1440.1,997.4C1439.2,997.6 1433.1,998.9 1426.4,1000.4C1419.7,1001.9 1412.5,1003.1 1410.3,1003.1C1406.7,1002.5 1406.2,1002.3 1405.1,1000.4Z"/>
        <path d="M1527.5,885.7C1526.5,885.5 1524.8,884.8 1523.7,884.1C1522.7,883.4 1519.9,882.4 1517.5,881.9C1512.1,880.7 1511.1,878.8 1514.4,876.1C1516.1,874.7 1517.5,874.3 1521.4,874.2C1531.7,874 1535.3,874.4 1542.2,876.7C1549,879 1549.1,879.1 1549.1,881.5C1549.1,884.4 1548.8,884.5 1540.5,885.2C1531.5,885.9 1529.5,886 1527.5,885.7Z"/>
    </g>
    <g id="CA.SK" transform="matrix(1,0,0,1,-442.724,-553.921)">
        <path d="M1045,935.5C1044.8,935.3 1042,935 1038.7,934.7C1035.4,934.4 1031.9,934.1 1030.8,933.9C1029.8,933.7 1026.7,933.4 1024,933.1C1021.3,932.8 1018.3,932.5 1017.2,932.4C1016.2,932.3 1013.1,931.9 1010.4,931.6C1007.7,931.3 997.3,929.2 987.2,927C977.1,924.7 968.3,922.8 967.7,922.6C964.3,921.9 962.4,921.4 957.9,920.4C955.2,919.8 952.3,919.1 951.5,919C950.7,918.9 947.4,918.1 944.2,917.4C939.5,916.3 938.4,915.8 938.7,914.8C939.1,913.7 945,889.4 945.5,886.9C945.6,886.3 946.8,881.4 948.1,876C949.4,870.6 951.7,861.2 953.1,855C954.6,848.8 957.5,836.8 959.5,828.4C961.6,819.9 963.4,812.4 963.5,811.5C963.7,810.7 964.8,805.8 966.1,800.6C967.3,795.4 969.9,784.8 971.8,777C973.7,769.2 976.3,758 977.7,752.2C979.1,746.4 981.5,736.6 983,730.3C983,730.3 987.6,709.8 988.7,704.6C989.3,701.6 989.8,700.9 990.8,701.1C991.9,701.4 997.2,702.5 1002.2,703.4C1003.2,703.6 1004.7,703.9 1005.5,704.1C1008,704.6 1039.1,710.7 1041.1,711C1042.1,711.2 1047,712.1 1052,713.1C1056.9,714.1 1062.3,715 1064,715.2C1066.9,715.5 1067,715.6 1066.9,718.1C1066.8,719.5 1065.9,726.9 1064.9,734.6C1063.8,742.2 1062.8,750.2 1062.5,752.2C1062,755.9 1059.6,767.1 1059,773.8C1058.5,778.8 1057.8,783.4 1056.6,798.3C1056.4,800.6 1056.1,805.5 1055.8,809.2C1055.6,812.9 1055.2,817.5 1055.1,819.3C1054.9,821.2 1054.6,826.1 1054.3,830.2C1054.1,834.3 1053.7,838.9 1053.6,840.3C1053.4,841.7 1053.1,846.6 1052.8,851.2C1052.5,855.7 1052.2,860.3 1052.1,861.3C1052,862.3 1051.6,867.2 1051.3,872.2C1051,877.1 1050.7,881.7 1050.6,882.3C1050.5,882.9 1050.2,887.6 1049.8,892.8C1049.5,898 1049.2,902.7 1049,903.3C1048.9,903.9 1048.6,908.6 1048.2,913.8C1047.9,919 1047.5,923.8 1047.4,924.5C1047.3,925.2 1047.1,928 1047,930.7C1047.1,935.2 1046.4,936.7 1045,935.5Z"/>
    </g>
    <g id="US.AK" transform="matrix(0.50963,-0.280361,0.280361,0.50963,-180.146,1014.07)">
        <path d="M736.1,-54.1C735,-55.2 735.1,-55.5 736.9,-58.2C738,-59.8 739.2,-61.2 739.5,-61.2C739.9,-61.2 741.3,-62.4 742.6,-63.8C744,-65.3 745.9,-66.6 746.8,-66.8C747.7,-67 750.1,-68.2 752.1,-69.4C756.1,-72 756.8,-72.1 758.1,-70.6C758.8,-69.7 758.5,-69 756,-66.6C754.4,-65 752.8,-63 752.6,-62.3C752.1,-60.7 748.6,-58.3 744.6,-56.8C743.2,-56.2 741.3,-55.2 740.4,-54.4C738.6,-52.7 737.6,-52.6 736.1,-54.1Z"/>
        <path d="M832.3,125.1C821.5,119.6 821.3,119.4 820.8,116.7C820.5,115.2 819.7,111.3 818.9,108.2C818,104.6 817.5,99.9 817.5,95.4C817.5,83.9 817.5,82.8 816.2,79.7C815.3,77.4 815.1,75.1 815.5,68.8C815.8,64.4 816.2,60.5 816.5,60C817,59.2 816.9,47.4 816.3,41.2C816.1,39.6 814.7,35.7 813,32.6C810.3,27.5 810,26.1 809.6,20.1C809.1,11.1 808.6,9 806.1,4.9C804.1,1.7 804,1 804.4,-3.4C804.8,-7.6 805.1,-8.3 806.8,-9C810.6,-10.7 810.6,-12.9 806.8,-11.5C804.6,-10.7 804.4,-10.8 799.7,-15.5C795.1,-20.2 794.7,-21 793,-28.2C792.3,-31 785.2,-38.4 781.3,-40.2C779.4,-41.1 776.7,-43 775.1,-44.5C772.7,-46.8 772.2,-47.8 771.8,-51.5C771.3,-55.8 771.3,-55.8 768,-57.1L764.7,-58.4L765.2,-62.3C765.5,-64.4 766.1,-67.4 766.6,-69C767.5,-71.7 767.5,-71.8 765.5,-72.5C763.6,-73.2 763.4,-73.5 763.5,-76.9C763.5,-81.5 762.8,-83.9 761.3,-83.9C758.9,-83.9 754.8,-81.3 753.1,-78.6C752.1,-77 750.5,-75.5 749.6,-75.2C747.7,-74.6 746.6,-73.6 743.5,-69.4C740.4,-65.3 737.9,-65.5 734.9,-70.1C733.6,-72 732.6,-73.9 732.6,-74.2C732.6,-74.5 729.5,-74.8 725.8,-74.8C722.1,-74.8 718.4,-75.1 717.6,-75.6C716.8,-76 713.7,-76.6 710.7,-76.8C705.7,-77.2 702.3,-78.5 700.9,-80.4C700,-81.6 700.2,-85.3 701.2,-85.3C701.7,-85.3 703.6,-87 705.5,-89C708.7,-92.5 709.2,-92.8 713.2,-93.1C717.7,-93.5 719.6,-94.2 721.2,-96.1C721.7,-96.7 723.3,-97.3 724.7,-97.3C726.1,-97.3 727.4,-97.6 727.7,-98.1C728,-98.6 729.5,-98.9 731.1,-98.9C732.7,-98.9 734.2,-98.6 734.5,-98.1C734.8,-97.6 736,-97.3 737.4,-97.3C738.9,-97.3 740.8,-96.5 742.4,-95.2C743.8,-94 745.8,-92.6 746.8,-92.1C748.4,-91.3 748.3,-91.6 746,-94.4C742,-99.4 742,-99.5 745.1,-100.8L747.9,-102L745.3,-103.1C743.6,-103.8 740.8,-104.1 736.9,-104C733.7,-103.9 731.1,-104 731.1,-104.2C731.1,-104.4 730.7,-105.2 730.1,-106C729.3,-107.1 728.8,-107.2 727.7,-106.6C723,-104.1 716,-102 712,-101.8C707.5,-101.6 707.5,-101.6 707.3,-99.2L707.1,-96.8L700.6,-96.8C693.1,-96.8 686,-95.4 683,-93.5C681.9,-92.8 680.9,-91.9 680.9,-91.7C680.9,-91.4 680.7,-90.6 680.6,-89.9C680.5,-89.2 680.6,-88.6 680.8,-88.6C681.1,-88.6 681.7,-88.3 682.3,-88C683.1,-87.5 682.9,-86.6 681.7,-83.8C680.3,-80.5 680,-80.3 677.9,-80.6C676.6,-80.8 675.2,-81.3 674.7,-81.7C674.2,-82.1 668.6,-82.6 662.2,-82.8C651.1,-83.1 647.4,-83.5 643.9,-84.8C643,-85.1 641.1,-85 639.4,-84.4C635.5,-83 613.9,-83.1 611.2,-84.5C610.1,-85.1 605.3,-85.6 599.9,-85.9C594.7,-86.1 589.7,-86.5 588.7,-86.8C587.7,-87.1 586.4,-87.4 585.9,-87.5C585.4,-87.6 584.6,-88.1 584.1,-88.6C583.6,-89.1 582.6,-89.5 581.8,-89.5C580.9,-89.5 580.1,-90.3 579.5,-91.7C579,-92.9 578.4,-94 578.1,-94C576.8,-94.2 576.2,-94.4 572.6,-95.7C570.5,-96.5 568.5,-97.5 568.1,-98C567.1,-99.1 558.7,-103.6 557.6,-103.6C557.1,-103.6 556.3,-104.1 555.8,-104.7C555.3,-105.3 554.3,-105.6 553.5,-105.5C552.6,-105.3 551.5,-106 550.5,-107.4C549.6,-108.6 548.5,-109.6 547.9,-109.6C547.4,-109.6 546.5,-110.1 546,-110.7C545.5,-111.3 544.3,-111.8 543.4,-111.8C542.5,-111.8 540.5,-112.3 539.1,-112.9C537.1,-113.7 536.3,-114.6 535.9,-116.5C535.6,-117.9 535,-119.4 534.6,-119.9C533.6,-121.2 534.6,-123.9 536.1,-123.9C536.8,-123.9 539.3,-124.1 541.7,-124.4C544.1,-124.6 546.4,-124.5 546.9,-124.1C547.4,-123.7 549.4,-123.1 551.2,-122.9C556.9,-122.1 561.4,-120.3 563.6,-117.9C565,-116.4 569,-114.4 575.5,-111.8C584.7,-108.2 588.8,-106.3 592,-104C593.3,-103.1 594.9,-103.1 601.8,-104C602.6,-104.1 606.3,-103.4 610,-102.4C613.7,-101.4 616.9,-100.8 617.2,-101C617.5,-101.2 620,-101.5 622.9,-101.8C630.8,-102.5 635.7,-104.3 643.5,-109.2C647.4,-111.7 652.1,-114.4 654,-115.2L657.4,-116.8L652.9,-117C647.7,-117.3 646,-118.4 645.3,-122.1C644.9,-124.4 644.7,-124.5 643.3,-123.8C642,-123.1 641.6,-123.2 640.8,-124.3C639.3,-126.4 638.8,-130.3 639.6,-133.6L640.3,-136.5L634.9,-141.7C630.2,-146.2 629.1,-147 626,-147.5C622.9,-148 621,-149.3 621,-151.1C621,-151.3 622.5,-152.6 624.3,-154C627.8,-156.7 636.2,-167.2 637.5,-170.6C638.2,-172.6 638.2,-172.6 634.6,-172.6C631.3,-172.6 630.8,-172.8 628.9,-175.4C627.7,-176.9 625.8,-179.1 624.7,-180.2C621.9,-182.8 621.8,-186.9 624.5,-191.6C625.6,-193.5 626.5,-196.5 626.7,-198.3C626.8,-200.1 627,-201.9 627,-202.3C627,-202.7 629.2,-204.2 631.9,-205.6C635.3,-207.4 637.1,-208.9 637.9,-210.7C639,-213.1 639,-213.4 637.5,-216.1C635.9,-218.9 635.9,-219 637.2,-223.1C638.8,-228.1 639.3,-228.6 643.6,-228.8C646.1,-228.9 647.3,-229.5 648.3,-230.8C649.6,-232.5 650,-232.6 655.2,-232.1C659.6,-231.7 661.1,-231.9 662.5,-232.9C663.8,-233.8 666,-234.1 671.2,-234.1L678.2,-234.1L678.3,-230.3C678.4,-228.2 678.5,-225.9 678.6,-225.1C678.7,-224.3 678.8,-222.4 678.9,-220.9C679,-218.6 679.2,-218.3 680.3,-218.9C681,-219.3 684.3,-219.8 687.5,-220L693.4,-220.4L694.6,-218.2C695.6,-216.3 696.2,-216 698,-216.4C699.2,-216.6 702.2,-218.5 704.8,-220.7C708.4,-223.7 709.4,-225 709.5,-226.7C709.7,-230.6 710.2,-231 714.7,-231.2C718.1,-231.4 719,-231.7 719.2,-232.7C719.4,-233.9 718.5,-234 710.5,-234L701.6,-234L701.1,-236.6C700.8,-238.2 700.9,-239.6 701.5,-240.3C702.2,-241.1 702.1,-241.7 700.9,-242.8C700.1,-243.6 699.2,-245.3 698.9,-246.7C698.6,-248.3 697.6,-249.6 696,-250.5C688.1,-255.1 688.2,-255 687.6,-259C686.8,-264 686.8,-264.4 687.6,-268.6C688.2,-271.9 688.4,-272.2 691.1,-273C694.4,-274 694.7,-275 692.6,-278.9C691.8,-280.3 691,-283.6 690.7,-286.1C690.3,-290.2 690.4,-290.8 692,-292.3C693.7,-293.9 694,-293.9 699.3,-293.1C702.8,-292.5 707.4,-291 711.9,-288.9C715.8,-287.1 721.9,-284.8 725.6,-283.8C733.2,-281.7 736,-280.5 736,-279.5C736,-279.1 734.5,-277.4 732.6,-275.6C727.7,-270.9 727.9,-268.8 733.7,-264.4C738.6,-260.6 739.4,-260.4 740.1,-262.3C740.4,-263 742.2,-265.5 744.3,-267.7C747.7,-271.4 748.1,-271.7 749.5,-270.9C752.1,-269.3 752.2,-270.8 750.4,-280.6C750,-282.6 748.7,-285.4 747.4,-287.1C745.1,-290 745,-290.2 745,-298.6C745,-303.7 745.3,-307.5 745.8,-308C746.2,-308.4 746.8,-311.5 746.9,-314.7C747.1,-317.9 747.5,-320.8 747.8,-321C748.1,-321.3 750.5,-322.2 753.1,-323.1L757.9,-324.8L761.4,-321.4C766.2,-316.8 769.2,-315.4 775.9,-314.9C781.2,-314.5 781.7,-314.6 782.5,-316C783,-316.9 785.5,-318.6 788.1,-319.9C791.9,-321.8 793.9,-322.3 798.2,-322.4L803.6,-322.6L807.2,-319.1C812.1,-314.3 816.7,-313.3 824.2,-315.4C831.2,-317.4 834.5,-316.5 840.6,-310.7L845,-306.6L850.1,-306.6C852.9,-306.6 855.4,-306.3 855.6,-306C856.3,-304.9 857.2,-298.7 857.1,-295.2C857.1,-292.9 856.3,-290.2 854.8,-287.1L852.5,-282.5L854.8,-279.8C856.1,-278.3 858.5,-276.1 860.3,-274.9L863.5,-272.7L862.3,-270.1C861.1,-267.6 861.1,-267.4 862.7,-265.4C863.6,-264.3 865.1,-261.7 866,-259.8C867.4,-256.8 868,-256.3 869.8,-256.2C872.5,-256.2 878.5,-249.9 880.1,-245.3C881.8,-240.3 890.7,-231.1 900.4,-224.4C905.7,-220.7 909.8,-218.4 911.5,-218.2C913,-218 914.5,-217.4 914.8,-217C915.5,-215.9 914.7,-208.2 913.8,-207C913.4,-206.5 913.3,-205.7 913.5,-205.3C913.8,-204.9 914.3,-202.5 914.7,-200L915.4,-195.5L908.4,-185.2C900.1,-172.9 888.8,-156.2 871.5,-130.6C864.5,-120.3 855.1,-106.3 850.5,-99.5C842.4,-87.5 825.2,-62 812.7,-43.5C805.9,-33.4 805.8,-32.7 809.9,-29.4C811.2,-28.3 812.9,-27 813.6,-26.3C814.7,-25.2 817.3,-24.7 822.4,-24.6L824.2,-24.5L821.9,-22.1C818.5,-18.5 818,-17 817.4,-9.8C817.1,-6.2 816.8,-3.1 816.7,-2.9C816.6,-2.7 817.1,-1.3 817.9,0.2C819.7,3.8 820.2,11.3 818.9,16.3C818.4,18.4 817.9,20.5 817.9,21C817.9,22.5 819.6,22.1 822.3,20.1C823.6,19.1 827.8,17.2 831.4,15.9C835.1,14.6 838.1,13.3 838.1,13C838.1,12.7 838.6,11.9 839.2,11.1C840.8,9 845.4,10.7 846,13.5C846.2,14.6 846.9,17.3 847.5,19.4C850.3,29.6 851.7,38.4 852.7,51.5C852.9,54.8 853.5,58.7 853.8,60.1C854.6,63 854.5,63.5 852,73.6C850.5,79.8 850.4,81.2 851.1,84.1C852.4,89.3 856.7,97.7 859.5,100.6C861.7,103 862,103.7 861.8,106.8C861.6,109.4 861,110.9 859.3,112.7C856.2,116.1 855.2,118.1 855.2,121C855.2,123.7 852.9,126.5 848.8,128.5C844,131 843.6,130.9 832.3,125.1Z"/>
        <path d="M657.9,-52C653.7,-54.8 650.1,-57.5 649.9,-57.9C649.7,-58.4 650.4,-60.6 651.4,-62.7C652.8,-65.5 653.2,-67.4 652.9,-69.2C652.5,-71.4 652.8,-71.9 654.8,-73.1C656.7,-74.2 658,-74.4 661.7,-74.1C664.2,-73.9 666.9,-73.7 667.8,-73.8C668.6,-73.9 673.2,-74.1 677.9,-74.4C682.6,-74.7 686.8,-75.1 687.2,-75.5C688.1,-76.3 693.6,-76.4 693.7,-75.6C693.7,-75.3 693.9,-74.3 694.1,-73.3C694.3,-72.4 693.9,-70.5 693.4,-69.1C692.5,-67.1 691.5,-66.3 688.1,-65C685.8,-64.1 683.4,-63.4 682.9,-63.4C682.4,-63.4 680.3,-60.8 678.3,-57.6C671.5,-46.5 671.9,-46.9 668.6,-46.9C666.1,-47 664.2,-47.9 657.9,-52Z"/>
        <path d="M508.5,-125.8C505.1,-129.6 504.1,-130.3 502,-130.3C500.2,-130.3 499.2,-130.8 498.4,-132C497.7,-133.1 495.6,-134.3 492.9,-135.1C485.1,-137.5 485.1,-137.6 485.9,-139.2C486.7,-140.7 487,-140.7 498.7,-139.7C500.7,-139.5 502.2,-138.6 504.9,-135.9C506.8,-133.9 508.7,-132.5 509.1,-132.8C509.5,-133 511.7,-132.4 513.9,-131.4C517.9,-129.6 518,-129.5 517.9,-126.7C517.5,-121.1 517.6,-121.2 515,-121.3C513,-121.3 511.8,-122.1 508.5,-125.8Z"/>
        <path d="M604.9,-197.6C602.4,-200.2 602.2,-200.7 602.9,-202.5C603.3,-203.6 603.7,-206.7 603.8,-209.3C603.9,-215.3 605.5,-217.4 609.6,-217C612.2,-216.8 612.4,-216.6 613.4,-212.8C614.2,-209.9 614.8,-208.9 615.8,-208.9C616.6,-208.9 617.6,-208 618.2,-206.9C619.1,-205.2 619.1,-204.5 618.2,-202.2C617.6,-200.7 616.3,-198.4 615.3,-197.1C613.8,-195.1 612.9,-194.7 610.7,-194.7C608.3,-194.7 607.2,-195.3 604.9,-197.6Z"/>
        <path d="M637.8,-263.2C636.9,-266.3 636.5,-268.6 636.2,-274.6C635.9,-280 635.5,-281.6 634.4,-282.6C632.4,-284.4 632.6,-287.1 635.1,-289.5C637.7,-292 638.5,-292 639.6,-289.6C640.1,-288.5 641.6,-287.2 642.9,-286.6C647.5,-284.6 648.1,-283.7 647.8,-279.8C647.6,-276.3 647.5,-276.2 645.5,-276.4C643.5,-276.6 643.4,-276.6 643.6,-272.8C643.7,-270.7 644,-268.8 644.4,-268.6C645.4,-268 645.1,-266.3 643.7,-264.7C642.1,-262.8 638.2,-261.9 637.8,-263.2Z"/>
    </g>
    <g id="US.AL" transform="matrix(1,0,0,1,-446.279,-555.352)">
        <path d="M1227.7,1321.2C1227.4,1320.3 1226.6,1320.2 1224.6,1320.5L1222,1321L1222.4,1292.6C1222.6,1277 1223,1262.7 1223.2,1260.8C1223.4,1258.9 1223.8,1254.6 1224.1,1251C1224.4,1247.5 1224.8,1244.1 1224.9,1243.4C1225,1242.7 1225.4,1239.2 1225.7,1235.6C1226,1232 1226.3,1228.5 1226.4,1227.9C1226.5,1227.1 1227.5,1226.7 1229.5,1226.6C1231.1,1226.5 1239.4,1226.3 1248,1226L1263.5,1225.6L1264.2,1228.4C1264.6,1229.9 1265.3,1232.9 1265.8,1235C1266.2,1237.1 1267.3,1240.8 1268.1,1243.2C1269.5,1247.4 1270.5,1252.8 1271.4,1261.4C1271.6,1263.3 1272.8,1266.9 1274,1269.3C1276.3,1273.8 1276.4,1274.3 1276.1,1286.4C1276,1292.5 1276.2,1294.5 1277.7,1300.8C1278.1,1302.3 1278.1,1303.7 1277.9,1303.9C1277.6,1304 1272.9,1304.2 1267.3,1304.3C1261.7,1304.4 1252.6,1304.6 1247.1,1304.9C1238.2,1305.3 1236.8,1305.5 1235.7,1306.9C1234.1,1308.8 1234,1308.6 1236.2,1313.9C1237.2,1316.3 1238.2,1319.3 1238.5,1320.4L1239,1322.5L1233.7,1322.5C1229.4,1322.4 1228.1,1322.1 1227.7,1321.2Z"/>
    </g>
    <g id="US.AR" transform="matrix(1,0,0,1,-446.279,-555.352)">
        <path d="M1128.3,1259.4L1128.1,1253.8L1125.7,1253.1C1122.8,1252.3 1123,1254 1123.3,1232C1123.4,1223.8 1123.5,1212.4 1123.4,1206.7L1123.3,1196.4L1156.3,1196.7C1174.4,1196.9 1189.5,1197.2 1189.7,1197.4C1189.9,1197.6 1189.7,1199.4 1189.2,1201.3C1188.1,1205.2 1188.3,1205.5 1192.8,1206.8C1194.6,1207.3 1196,1208.1 1196,1208.5C1196,1208.9 1194.9,1211.2 1193.5,1213.6C1192.1,1216 1190.6,1219.6 1190.1,1221.6C1189.5,1224 1188.2,1226.5 1186.3,1228.7C1184.2,1231.1 1183.2,1233.1 1182.8,1235.4C1182.5,1237.6 1181.3,1240.1 1179.4,1242.6C1175.3,1248 1174.1,1251.9 1174.2,1259.1L1174.3,1265.1L1151.4,1265.1L1128.5,1265.1L1128.3,1259.4Z"/>
    </g>
    <g id="US.AZ" transform="matrix(1,0,0,1,-446.279,-555.352)">
        <path d="M864.1,1263.1C860.4,1262.3 855.6,1261.1 853.5,1260.5C851.4,1259.9 848.3,1259.4 846.7,1259.4C844.3,1259.4 842.9,1258.7 838.9,1255.5C836.2,1253.3 833.4,1251 832.5,1250.2C831.7,1249.4 828,1246.8 824.2,1244.2C816.1,1238.7 804.2,1229.7 800.6,1226.4C799.2,1225.1 796.8,1223.5 795.3,1222.9C792.5,1221.7 788.2,1217 788.9,1215.9C789.1,1215.5 791.2,1214.5 793.4,1213.6C797.2,1212 797.5,1211.7 797.5,1209.5C797.5,1208 796.9,1206.5 796,1205.7C793.8,1203.7 794.1,1202 797.2,1198.9C798.7,1197.4 800.5,1194.9 801.3,1193.3C802.2,1191.6 803.3,1190.4 804.1,1190.4C804.8,1190.4 806.4,1189.4 807.5,1188.2L809.6,1186L807.9,1182.7C806.5,1180 806.2,1178.2 806.2,1172.9C806.2,1169.3 806.4,1166.3 806.6,1166.3C806.9,1166.3 807.3,1163.3 807.6,1159.7C808,1155 808.6,1152.5 809.6,1151.1C811,1149.1 811.3,1149 815.4,1149.5L819.7,1150L822.1,1143.6C823.4,1140.1 824.8,1137 825.1,1136.8C825.7,1136.4 896.6,1153.9 897.9,1154.7C898.4,1155 898.4,1155.8 898,1156.9C897.6,1157.8 897.2,1159.6 897,1160.8C896.8,1162 894.2,1173.4 891.3,1186.2C888.4,1199 885.8,1210.1 885.7,1211C885.5,1211.8 884,1218.6 882.3,1226C880.6,1233.4 878,1245.2 876.4,1252.1C873.4,1266.5 874.7,1265.3 864.1,1263.1Z"/>
    </g>
    <g id="US.CA" transform="matrix(1,0,0,1,-446.279,-555.352)">
        <path d="M784.1,1213.6C782.9,1212.9 767.3,1208.6 757.7,1206.4C751,1204.8 750.4,1203.9 750,1194.1C749.7,1186.9 749.5,1186.2 746.9,1181.9C745.4,1179.4 742.9,1176.5 741.3,1175.4C739.7,1174.3 738.1,1172.5 737.6,1171.4C737.1,1170.3 735.5,1168.3 733.9,1167.1C732.3,1165.9 730,1163.2 728.6,1161.2C725.9,1157.3 722.2,1154.3 719.9,1154.3C717.7,1154.3 713.1,1151.2 711,1148.4C708.9,1145.6 708.9,1142.3 711.1,1139.9C712.8,1138.1 712.5,1135 709.8,1125.8C708.5,1121.5 707.5,1117.1 707.5,1116C707.5,1114.9 706.4,1112.2 705,1110C702.2,1105.3 702.1,1105.1 704.1,1102.2C706.2,1099 706.1,1092.8 703.8,1089.7C702.3,1087.7 702.2,1086.8 702.6,1083.7C702.9,1081.7 703.8,1079.2 704.6,1078.2C706.6,1075.6 705.9,1072.7 702.5,1069.7C700,1067.6 699.7,1066.8 699.6,1063.7C699.6,1061.7 698.8,1058.5 697.9,1056.5C697,1054.5 695.9,1051 695.4,1048.6C694.6,1044.6 694.7,1043.9 697.2,1035.9L699.8,1027.5L697.9,1022.9C696.1,1018.4 696.1,1018.2 697.4,1015.3C698.1,1013.7 699.5,1011.5 700.5,1010.3C701.5,1009.2 704.1,1005.5 706.4,1002.1C709.9,996.8 710.5,995.4 710.6,992.2C710.7,989.8 711,988.6 711.5,988.7C712.4,989 733.3,996.6 745.7,1001.1C750,1002.7 757,1005.2 761.2,1006.8C768.8,1009.6 768.8,1009.6 768.1,1011.6C767.7,1012.7 765.7,1018.1 763.7,1023.7C761.7,1029.3 758.4,1038.7 756.2,1044.7C754.1,1050.7 751.6,1057.5 750.8,1059.9C749.3,1064.2 749.3,1069.3 750.8,1071.2C751.2,1071.7 753.3,1075.6 755.6,1079.9C769.3,1105.9 802.2,1167.4 802.9,1168.2C803.3,1168.7 803.6,1171.5 803.5,1174.3C803.4,1178.3 803.7,1180.2 804.9,1182.5C806.7,1186.1 806.5,1186.8 803.2,1187.6C801.4,1188.1 800.4,1189.1 799.1,1191.6C798.1,1193.4 796.2,1196.1 794.8,1197.6C791.8,1200.7 791.4,1204.2 793.7,1206.7C795.9,1209.1 795.6,1209.7 791.2,1211.6C785.9,1214.3 785.5,1214.4 784.1,1213.6Z"/>
        <path d="M731.9,1190.9C729.6,1189.7 730.8,1187.8 733.5,1188.4C735.6,1188.9 736,1189.8 734.5,1191C733.9,1191.5 733.1,1191.5 731.9,1190.9Z"/>
        <path d="M734.2,1181C733,1179.6 733,1178.4 734.2,1178.4C735.5,1178.4 737,1179.9 737,1181.2C737,1182.4 735.3,1182.3 734.2,1181Z"/>
        <path d="M718.2,1163.5C715.4,1163 711.4,1160.7 711.4,1159.6C711.4,1159.2 713.2,1158.9 715.4,1158.9C718.3,1158.9 720.1,1159.4 722,1160.6C723.4,1161.5 724.5,1162.6 724.5,1163C724.6,1163.9 721.8,1164.1 718.2,1163.5Z"/>
    </g>
    <g id="US.CO" transform="matrix(1,0,0,1,-446.279,-555.352)">
        <path d="M998,1171.1C994.7,1170.3 983.2,1167.9 972.9,1165.9C972.1,1165.7 969.7,1165.3 967.7,1164.9C965.6,1164.5 963.1,1164 962.1,1163.8C960.3,1163.5 950,1161.5 923.9,1156.5C917.5,1155.3 910.1,1153.8 907.4,1153.3C903.9,1152.6 902.6,1152 902.7,1151.3C902.8,1150.7 905.4,1138.6 908.6,1124.3C911.8,1110.1 914.5,1097.7 914.7,1096.9C914.9,1096.1 916,1091.2 917.1,1086C918.9,1077.9 919.4,1076.6 920.7,1076.7C921.5,1076.8 925.5,1077.5 929.6,1078.4C933.7,1079.3 937.8,1080.1 938.8,1080.3C939.8,1080.5 941.2,1080.8 941.9,1081C942.6,1081.2 944,1081.5 945.1,1081.7C947.8,1082.2 956.2,1083.9 972.5,1087.5C980.3,1089.2 988.1,1090.7 989.7,1090.9C991.3,1091.1 993.7,1091.4 994.9,1091.6C996.1,1091.8 998.3,1092.2 999.8,1092.4C1013.4,1094.6 1017.4,1095.5 1017.3,1096.5C1016.5,1102.3 1012.5,1131.3 1012.2,1133.6C1012,1135.3 1011.7,1137.4 1011.5,1138.5C1011.3,1139.5 1011,1141.6 1010.8,1143C1010.6,1144.4 1009.8,1150.5 1008.9,1156.5C1008.1,1162.5 1007.3,1168.4 1007.1,1169.6C1006.9,1171.5 1006.5,1171.9 1004.6,1171.9C1003.1,1172.1 1000.2,1171.7 998,1171.1Z"/>
    </g>
    <g id="US.CT" transform="matrix(1,0,0,1,-446.279,-555.352)">
        <path d="M1433.9,1076.2C1434.1,1075.7 1433.6,1073.7 1433,1071.9C1432.3,1070 1431.9,1067.8 1432,1067C1432.1,1066.2 1432.3,1064.5 1432.4,1063.2L1432.6,1060.9L1440.9,1059.2C1445.5,1058.2 1449.6,1057.4 1450.1,1057.3C1450.8,1057.2 1454.1,1068.3 1454.1,1070.8C1454.1,1071 1452.2,1071.8 1449.8,1072.4C1443.3,1074.2 1438.1,1076 1437.3,1076.6C1436,1077.5 1433.6,1077.2 1433.9,1076.2Z"/>
    </g>
    <g id="US.DC" transform="matrix(1,0,0,1,-446.279,-555.352)">
        <path d="M1388.8,1130.1C1388.1,1129.3 1388.2,1128.9 1389,1128.2C1389.8,1127.5 1390.2,1127.6 1390.9,1128.4C1391.6,1129.2 1391.5,1129.6 1390.7,1130.3C1389.9,1130.9 1389.5,1130.9 1388.8,1130.1Z"/>
    </g>
    <g id="US.DE" transform="matrix(1,0,0,1,-446.279,-555.352)">
        <path d="M1409.1,1129.1C1408.3,1125.9 1407.1,1120.9 1406.6,1118.1C1405.8,1113.7 1405.8,1112.9 1406.7,1112.3C1408.6,1111.1 1408.9,1111.5 1408.9,1114.5C1408.9,1120.2 1409.6,1121.6 1413.3,1123.9C1416.7,1125.9 1420.9,1131.4 1420.9,1133.7C1420.9,1134.4 1419.4,1134.7 1415.7,1134.8L1410.5,1134.9L1409.1,1129.1Z"/>
    </g>
    <g id="US.FL" transform="matrix(1,0,0,1,-446.279,-555.352)">
        <path d="M1337.5,1305.2C1337.1,1305.2 1336.6,1305.2 1336.1,1305.3L1333,1305.5L1332.8,1309.5C1332.5,1314.1 1332.5,1314.1 1330,1314.5C1328.6,1314.8 1327.8,1314.4 1326.9,1313C1326,1311.6 1325.1,1311.2 1322.9,1311.2C1321.4,1311.2 1311.4,1311.2 1300.8,1311.2L1281.5,1311.1L1281,1308.8L1280.5,1306.5L1260.9,1307C1250.1,1307.3 1240.6,1307.6 1239.8,1307.8C1239,1308 1238,1308.1 1237.7,1308.2C1236.8,1308.3 1237.1,1310.1 1238.6,1314C1239.4,1316 1240.2,1318.6 1240.5,1319.8C1240.8,1321.3 1241.3,1321.8 1242.2,1321.5C1242.9,1321.3 1247,1320.9 1251.2,1320.7L1258.9,1320.2L1263.2,1322.8C1265.6,1324.2 1268.7,1325.8 1270.1,1326.2C1271.7,1326.7 1273.4,1328.1 1274.5,1329.7C1276.1,1332.1 1276.5,1332.3 1279,1331.9C1280.5,1331.6 1284.4,1330.1 1287.7,1328.4C1296.9,1323.8 1298.5,1323.3 1301.2,1324.6C1302.5,1325.2 1304.3,1326.9 1305.3,1328.3C1306.3,1329.7 1309.9,1333.4 1313.3,1336.6C1320.5,1343.1 1320.9,1344.1 1321.5,1355.2C1321.8,1359.9 1322.6,1364.9 1323.7,1368.6C1324.7,1371.8 1325.5,1375 1325.5,1375.7C1325.5,1376.4 1326.7,1378 1328.1,1379.2C1329.8,1380.7 1331.2,1383 1332.3,1386C1333.5,1389.5 1334.6,1391 1336.8,1392.6C1338.4,1393.7 1340.6,1396.3 1341.7,1398.3C1342.8,1400.3 1344.6,1402.3 1345.8,1402.8C1346.9,1403.3 1349.7,1405.8 1352.1,1408.5C1356.5,1413.5 1362.4,1417.4 1364.5,1416.8C1367.5,1415.9 1372.1,1415.6 1372.1,1416.3C1372.1,1418.8 1363.8,1425.2 1358.2,1426.9C1356.5,1427.4 1354.9,1428.2 1354.4,1428.6C1353.9,1429.1 1354,1429.2 1354.8,1429C1355.4,1428.8 1357.6,1428.1 1359.7,1427.4C1363.9,1426 1370,1421.8 1371.6,1419.2C1372.2,1418.3 1372.9,1415 1373.2,1412C1373.5,1408.9 1374.2,1405.5 1374.8,1404.3C1375.6,1402.7 1375.8,1399.7 1375.7,1391.8C1375.5,1381.9 1375.4,1381.2 1373.2,1376.9C1371.9,1374.4 1369.5,1369.7 1367.8,1366.4C1366.1,1363 1364.3,1358.7 1363.9,1356.6C1362.3,1349.3 1360.7,1345.5 1356.7,1340.3C1350.5,1332.1 1342,1313.8 1342,1308.6C1342,1306.4 1340.5,1305.3 1337.5,1305.2Z"/>
    </g>
    <g id="US.GA" transform="matrix(1,0,0,1,-446.279,-555.352)">
        <path d="M1328.7,1310.5C1327.7,1308.8 1327.6,1308.8 1305.7,1308.8L1283.8,1308.8L1283.1,1306.4C1282.7,1305.1 1282,1304 1281.6,1304.2C1281.1,1304.3 1280.7,1304.3 1280.7,1304.1C1280.7,1303.9 1280.2,1301 1279.5,1297.5C1278.8,1294.1 1278.4,1288.9 1278.5,1286C1279,1274.6 1278.7,1272.2 1276.7,1269.1C1274.9,1266.4 1273.8,1261.7 1272.7,1252.6C1272.5,1250.7 1271.5,1246.5 1270.6,1243.2C1267.7,1233.4 1266.3,1227.2 1266.8,1226.4C1267.1,1226 1268,1225.7 1268.9,1225.7C1270.5,1225.8 1280.2,1225.1 1285.9,1224.5C1287.3,1224.3 1291.5,1224 1295,1223.7L1301.5,1223.2L1300.9,1225.4C1300.4,1227.3 1300.6,1227.9 1302.2,1229.5C1303.3,1230.5 1304.9,1231.6 1305.8,1231.9C1306.7,1232.2 1309.4,1234.7 1311.7,1237.6C1314,1240.5 1317.7,1244.2 1319.8,1245.8C1324.4,1249.4 1331.4,1258.1 1334.1,1263.6C1335.2,1265.7 1336.6,1267.7 1337.3,1267.9C1338,1268.1 1339.2,1269.4 1340,1270.7C1341.9,1274 1345,1277.3 1346.3,1277.3C1347,1277.3 1347.2,1277.8 1346.9,1278.6C1346.7,1279.3 1345.3,1283.3 1343.8,1287.4C1342,1292.6 1341.2,1296.2 1341.2,1299.3C1341.2,1302.5 1340.9,1303.5 1340.3,1303.1C1339.4,1302.5 1332.6,1302.6 1330.6,1303.2C1329.6,1303.5 1329.5,1304.1 1329.9,1306.4C1330.2,1308 1330.2,1309.9 1329.9,1310.7C1329.7,1312.2 1329.7,1312.1 1328.7,1310.5Z"/>
    </g>
    <g id="US.HI" transform="matrix(1,0,0,1,-22.048,-204.431)">
        <path d="M405.7,1040.5C405.1,1040.3 404.1,1039.9 403.5,1039.7C402.9,1039.4 400.5,1039.2 398.3,1039.2C394.4,1039.2 394.2,1039 394,1037.2C393.9,1036.2 394.5,1033.7 395.3,1031.7C396.1,1029.7 396.8,1026.5 396.8,1024.5C396.8,1020.8 397.6,1019.6 400.2,1019.1C401,1019 402.4,1017.8 403.2,1016.4C404,1015.1 405.1,1014 405.6,1014C406.6,1014 413.3,1021.2 413.4,1022.5C413.4,1023 413.6,1023.9 413.7,1024.6C413.8,1025.3 413.7,1027.3 413.3,1029.1C412.8,1031.6 413,1032.7 413.8,1033.6C416.4,1036.5 413.7,1041.1 409.4,1041C407.9,1040.9 406.3,1040.7 405.7,1040.5Z"/>
        <path d="M398.4,998.2C397.3,997.8 396.7,996.9 396.7,995.8C396.7,993.6 400.1,989.8 401.6,990.1C403.1,990.4 406.4,996.5 405.9,997.9C405.5,999.1 401,999.3 398.4,998.2Z"/>
        <path d="M393.9,982.7C391.8,979.5 391.8,978.2 393.7,977.2C394.9,976.5 395.4,976.7 396.4,978.2C397.1,979.2 397.8,981.2 398,982.7C398.4,985 398.2,985.4 397,985.4C396.2,985.4 394.8,984.2 393.9,982.7Z"/>
        <path d="M382.2,967.8C378.1,964.7 377.8,963 380.9,959.9C383.6,957.2 384.7,957.2 387.2,959.7C389.3,961.8 389.9,966.2 388.4,969C387.3,971.1 386.1,970.8 382.2,967.8Z"/>
        <path d="M364.6,936.6C361.9,935.6 362.3,931.4 365.2,928.9C368,926.5 368.2,926.5 370.7,928.8C372.9,930.9 373.4,934.5 371.6,936C370.2,937.1 366.8,937.4 364.6,936.6Z"/>
        <path d="M352.8,928.4C352.5,927.9 352.7,927.2 353.3,926.9C354.8,925.9 357.3,926.4 357.3,927.7C357.3,929.1 353.6,929.7 352.8,928.4Z"/>
    </g>
    <g id="US.IA" transform="matrix(1,0,0,1,-446.279,-555.352)">
        <path d="M1169.3,1114.6C1168,1113.3 1166.2,1113.1 1148.7,1112.7C1138.2,1112.4 1127.5,1112.1 1125.1,1112C1122.6,1111.9 1118.5,1111.7 1116,1111.7L1111.4,1111.6L1109.9,1108.4C1109.1,1106.6 1108.2,1103 1107.9,1100.3C1107.4,1095.5 1106.9,1091.1 1106.3,1086.2C1106.1,1084.8 1105.1,1082.1 1104.1,1080.1C1102.5,1076.9 1102.3,1075.4 1102.1,1067.2C1102,1062.1 1102,1057.5 1102.1,1057C1102.2,1056.2 1109.7,1056.1 1138.3,1056.2L1174.5,1056.4L1175.1,1059C1175.4,1060.4 1175.9,1063.7 1176.2,1066.1C1176.7,1071.1 1178.6,1074.5 1181.3,1075.1C1182.2,1075.3 1183.4,1076.4 1183.8,1077.5C1184.3,1078.6 1185.4,1080.4 1186.3,1081.5C1189.1,1085 1187.8,1093.6 1184.1,1095.5C1183.4,1095.9 1181.4,1096.4 1179.6,1096.7C1176.5,1097.2 1176.4,1097.3 1176.3,1100.4C1176.1,1111.8 1176,1112 1172.7,1114.3C1170.8,1116 1170.7,1116 1169.3,1114.6Z"/>
    </g>
    <g id="US.ID" transform="matrix(1,0,0,1,-446.279,-555.352)">
        <path d="M888.8,1046.7C887.2,1046.2 875.8,1042.7 863.7,1038.9C851.5,1035.1 838.4,1031 834.5,1029.8C830.6,1028.6 823.9,1026.5 819.6,1025.2C810.6,1022.5 811,1024.1 815.9,1010.4C817.8,1005.2 819.5,999.3 819.8,997.3C820.2,994.6 820.9,992.9 822.6,991.2C824.8,989 824.9,988.6 824.4,984.5C824.1,982.1 823.9,980 823.9,979.7C823.8,978.1 824.3,977.3 826.5,976.2C829.1,974.8 833,970.8 833,969.4C833,968.9 834.4,967.2 836,965.6L839,962.7L837.9,956.7C836.1,946.9 836.6,941 840,931.3C841.6,926.7 845.1,916.7 847.8,909.1C850.5,901.5 852.8,895.1 853,894.9C853.5,894.4 862.4,897.2 862.4,897.8C862.4,898.1 861.5,901.7 860.5,905.7C859.3,910.6 858.6,915.1 858.6,918.7C858.6,921.8 858.6,925 858.7,925.8C858.7,926.6 860,929.7 861.6,932.6C863.2,935.5 864.7,939 865,940.5C865.5,943 868.1,947.4 869.3,947.9C870.4,948.4 869.9,951.4 868.4,953.7C867.6,954.9 866.9,957 866.9,958.3C866.9,960 866.5,960.8 865.3,961.2C863.6,961.8 862.3,964.4 862.3,967.6C862.3,969.4 862.7,969.9 864.8,970.5C866.2,970.9 868.2,971 869.2,970.8C870.8,970.5 871.2,970.8 871.9,972.9C872.3,974.3 872.9,977.1 873.1,979.1C873.4,981.1 873.7,983 873.8,983.2C873.9,983.4 874.3,984.8 874.5,986.3C875.5,992.2 876.4,994.8 878,996.5C879.5,998.1 880.1,998.2 883.9,997.8C886.7,997.5 889.8,997.8 893.1,998.6C895.9,999.3 898.7,999.7 899.5,999.5C901.6,998.8 902.9,1000.1 902.5,1002.5C902.3,1003.7 900.5,1011.2 898.6,1019.3C896.6,1027.3 894.3,1037 893.4,1040.7L891.8,1047.5L888.8,1046.7Z"/>
    </g>
    <g id="US.IL" transform="matrix(1,0,0,1,-446.279,-555.352)">
        <path d="M1204.2,1182C1203.9,1173.5 1203.3,1172.6 1195.6,1167C1190.3,1163.2 1190,1162.8 1190.4,1160.7C1190.6,1159.5 1191,1156.7 1191.2,1154.6C1191.7,1150.3 1190.9,1149.1 1186.5,1146.5C1184.2,1145.2 1182.5,1142.6 1182.5,1140.5C1182.5,1139.9 1180.4,1137.2 1177.8,1134.5C1172.9,1129.2 1172.5,1128.5 1171.8,1122.5L1171.3,1118.7L1174.9,1115.9L1178.5,1113.1L1178.6,1106.5C1178.7,1102.9 1178.8,1099.8 1178.9,1099.7C1179,1099.6 1180,1099.4 1181.1,1099.2C1186.9,1098.2 1189.9,1094.2 1190.4,1087.1C1190.6,1083.9 1190.3,1082.9 1188.4,1080.2C1187.2,1078.5 1186.2,1076.9 1186.2,1076.7C1186.2,1076.5 1190.5,1076.4 1195.8,1076.6C1201.1,1076.7 1209.8,1076.8 1215.3,1076.9L1225.2,1077L1225.2,1078.9C1225.2,1079.9 1225.7,1081.5 1226.3,1082.5C1228.3,1085.6 1228.7,1091.5 1228.9,1118.3C1229,1132.9 1229.2,1146.3 1229.5,1148C1229.9,1150.7 1229.5,1151.7 1226.6,1156.3C1223.7,1160.8 1223.2,1162.2 1222.8,1166.8C1222.3,1173.2 1220.8,1177.2 1218.6,1177.8C1217.7,1178.1 1216.7,1179 1216.3,1179.7C1215.7,1180.9 1214.7,1181.1 1211.3,1181.1C1208.4,1181.1 1206.6,1181.5 1205.7,1182.3C1204.3,1183.8 1204.2,1183.7 1204.2,1182Z"/>
    </g>
    <g id="US.IN" transform="matrix(1,0,0,1,-446.279,-555.352)">
        <path d="M1225.4,1165.1C1225.6,1163.5 1227.1,1160.2 1228.8,1157.6L1231.8,1152.9L1231.5,1123.5C1231.3,1107.3 1231.1,1093.5 1230.9,1092.8C1230.7,1091.8 1231.1,1091.5 1232.6,1091.5C1233.7,1091.5 1235,1091.2 1235.4,1090.7C1235.9,1090.2 1242.4,1089.9 1251.8,1089.8C1265.2,1089.7 1267.4,1089.8 1267.6,1090.8C1268.5,1096.9 1270.3,1145.9 1269.7,1147.5C1269.5,1148.1 1268.4,1148.6 1267.3,1148.6C1264.7,1148.6 1264.4,1148.9 1260.1,1154.6C1255.1,1161.3 1254.6,1161.6 1252,1161.7C1250.7,1161.7 1247.8,1162.9 1245.5,1164.2C1241.8,1166.4 1240.8,1166.6 1236.1,1166.5C1233.2,1166.4 1229.9,1166.8 1228.7,1167.2C1225.4,1168.4 1225,1168.1 1225.4,1165.1Z"/>
    </g>
    <g id="US.KS" transform="matrix(1,0,0,1,-446.279,-555.352)">
        <path d="M1115.5,1182.4C1115.4,1182.3 1112,1182 1107.9,1181.8C1103.8,1181.6 1099.9,1181.2 1099.3,1181C1098.7,1180.9 1095,1180.5 1091.1,1180.2C1087.2,1179.9 1083.5,1179.6 1082.8,1179.5C1082.2,1179.4 1078.3,1179 1074.2,1178.7C1070.1,1178.4 1066.2,1178.1 1065.6,1178C1065,1177.9 1061.3,1177.6 1057.4,1177.3C1053.5,1177 1049.8,1176.7 1049.2,1176.6C1048.6,1176.5 1044.9,1176.1 1041,1175.8C1037.1,1175.5 1033.4,1175.2 1032.7,1175C1032.1,1174.9 1028.2,1174.5 1024.1,1174.2C1020,1173.9 1016.1,1173.6 1015.5,1173.4C1014.9,1173.3 1013.2,1173.2 1011.7,1173.1L1009,1173L1010.3,1163.4C1011,1158.1 1011.8,1152.3 1012.1,1150.5C1012.3,1148.6 1012.7,1146.3 1012.9,1145.3C1013.1,1144.3 1013.4,1142.2 1013.6,1140.8C1013.8,1139.4 1014.3,1135.5 1014.8,1132.2C1015.3,1128.9 1015.8,1125 1016,1123.6C1016.2,1122.2 1016.5,1119.7 1016.8,1118.1L1017.2,1115.2L1022.2,1115.6C1027,1116 1038.5,1117.2 1044.1,1117.9C1045.5,1118.1 1048.9,1118.4 1051.6,1118.7C1054.3,1119 1057.3,1119.3 1058.4,1119.4C1059.4,1119.6 1062.5,1119.9 1065.2,1120.2C1067.9,1120.5 1070.9,1120.8 1072,1120.9C1073.1,1121 1076.4,1121.4 1079.5,1121.7C1082.6,1122 1085.6,1122.3 1086.3,1122.4C1087,1122.5 1090,1122.8 1093.1,1123.2C1096.2,1123.6 1099.4,1123.9 1100.2,1124C1101,1124.1 1104.5,1124.5 1108.1,1124.7C1113.9,1125.1 1114.8,1125.4 1116.7,1127.3C1118.9,1129.4 1118.9,1129.5 1117.6,1131.5C1116.5,1133.2 1116.4,1134 1117.1,1136.4C1117.6,1138 1118.4,1139.3 1119,1139.3C1119.6,1139.3 1120.4,1139.9 1120.8,1140.7C1122.1,1143.1 1122.6,1163.7 1121.6,1173.6L1120.7,1182.9L1118.5,1182.7C1116.6,1182.6 1115.6,1182.5 1115.5,1182.4Z"/>
    </g>
    <g id="US.KY" transform="matrix(1,0,0,1,-446.279,-555.352)">
        <path d="M1206.6,1189.5C1206.7,1187.3 1207.1,1185.1 1207.5,1184.6C1207.9,1184 1210,1183.7 1212.6,1183.7C1215.8,1183.7 1217.2,1183.4 1217.5,1182.6C1217.7,1182 1219,1180.9 1220.4,1180C1222.3,1178.9 1223.1,1177.7 1223.8,1174.8C1224.7,1171.2 1225,1171 1228.2,1169.9C1230.1,1169.3 1234.1,1168.8 1237.1,1168.8C1241.9,1168.8 1243,1168.6 1246.3,1166.5C1248.5,1165.1 1251.1,1164.1 1252.5,1164.1C1255.1,1164.1 1257.8,1161.8 1262.7,1155.1C1264.1,1153.2 1265.3,1151.6 1265.5,1151.4C1265.6,1151.2 1267.2,1150.9 1268.9,1150.6L1272.1,1150.2L1272.3,1146.6L1272.5,1143L1275.1,1143.4C1276.5,1143.6 1279,1144.8 1280.7,1146C1284.1,1148.5 1288.9,1149.4 1297.3,1149.2C1302.2,1149.1 1303.1,1149.3 1304.4,1150.6C1305.4,1151.7 1305.8,1153 1305.6,1154.8C1305.3,1157.8 1307,1160.9 1311.7,1166.4L1314.8,1170.1L1313,1171.4C1310.9,1172.9 1310,1173.8 1302.8,1181.8C1298.2,1187 1297.1,1187.8 1294.9,1187.8C1287.9,1187.9 1242.4,1189.1 1239.5,1189.2C1237.6,1189.3 1233.7,1189.4 1230.7,1189.5C1226.3,1189.6 1225.1,1189.8 1224.7,1190.9C1224.1,1192.4 1224.8,1192.3 1214.6,1192.9L1206.5,1193.4L1206.6,1189.5Z"/>
    </g>
    <g id="US.LA" transform="matrix(1,0,0,1,-446.279,-555.352)">
        <path d="M1205.3,1347C1204.1,1346.6 1201.4,1345.6 1199.5,1344.8C1196.3,1343.5 1195.7,1343.4 1193.5,1344.4C1190.8,1345.6 1188.8,1346.1 1183.9,1346.7C1179.3,1347.3 1174.7,1345.2 1170.6,1340.5C1168.9,1338.5 1165.9,1336.1 1164,1335.1L1160.6,1333.4L1159,1334.9C1155.9,1337.7 1149.4,1337.3 1143.4,1333.9C1140.9,1332.5 1130,1332.3 1128.7,1333.7C1127.1,1335.3 1127.1,1333.9 1128.9,1328.7C1129.9,1325.8 1130.9,1321.9 1131.1,1320.1C1131.9,1314.1 1132.3,1312.7 1133.7,1310.2C1135,1307.9 1135,1307.3 1134.2,1302.9C1133.7,1300.2 1132.3,1296 1131.2,1293.5C1129.3,1289.4 1129.1,1288 1128.8,1278.3L1128.5,1267.6L1151.4,1267.6C1169.2,1267.6 1174.3,1267.8 1174.4,1268.5C1174.6,1271.5 1175.2,1275 1176,1276.8C1177.2,1279.7 1176,1283.2 1170.9,1293C1166.1,1302.1 1165.1,1307 1167.8,1308C1168.7,1308.3 1172.7,1308.7 1176.6,1308.8C1182.8,1309 1189.6,1309.2 1195.1,1309.5C1196.5,1309.6 1196.7,1310.1 1197.1,1315.3C1197.6,1321.7 1198.2,1322.6 1204.2,1325.4C1207.1,1326.8 1207.4,1327.1 1207.4,1329.7C1207.4,1331.5 1206.9,1333 1206.1,1333.8C1203.8,1335.8 1204.1,1338.5 1206.7,1339.6C1209.2,1340.6 1212.7,1344.4 1212.7,1346C1212.7,1346.6 1212.1,1347.1 1211.3,1347.1C1210.5,1347.1 1209.4,1347.2 1208.9,1347.4C1208,1347.6 1206.6,1347.4 1205.3,1347Z"/>
    </g>
    <g id="US.MA" transform="matrix(1,0,0,1,-446.279,-555.352)">
        <path d="M1463.4,1058.4C1461.8,1055.9 1460.1,1053.9 1459.6,1053.8C1459.1,1053.8 1458.2,1053.6 1457.5,1053.5C1456.5,1053.3 1441.3,1056.2 1433.9,1057.9C1432.5,1058.2 1432.3,1057.9 1432.2,1054C1432.1,1051.6 1431.9,1048.8 1431.6,1047.6C1431.2,1045.6 1431.3,1045.5 1434.1,1045.5C1435.7,1045.5 1437.8,1045.3 1438.8,1045.1C1439.8,1044.9 1444.2,1044.2 1448.5,1043.5C1455.9,1042.3 1456.4,1042.1 1458.9,1039.4C1460.9,1037.2 1462.1,1036.5 1464,1036.5C1467.6,1036.5 1468.3,1037.8 1467,1042C1466,1045.3 1466,1045.8 1467.2,1047.3C1467.9,1048.3 1469.8,1049.8 1471.3,1050.8C1472.8,1051.8 1474.1,1052.7 1474.1,1053C1474.1,1054 1478.6,1055.9 1479.7,1055.5C1481.2,1054.9 1480.7,1051.6 1478.8,1050.2C1477.7,1049.4 1477.7,1049.3 1479.2,1049.3C1480.1,1049.3 1481.5,1050.3 1482.4,1051.6C1484,1053.9 1484,1053.9 1482.6,1055.8C1481.8,1056.9 1479.5,1058.3 1477.4,1059C1475.4,1059.7 1472.7,1060.8 1471.4,1061.5C1467.8,1063.7 1466.6,1063.3 1463.4,1058.4Z"/>
    </g>
    <g id="US.MD" transform="matrix(1,0,0,1,-446.279,-555.352)">
        <path d="M1409.8,1143.4C1409.2,1142 1408.5,1141.6 1407.5,1141.8C1404.7,1142.5 1401.7,1137.1 1401.5,1131.1C1401.5,1129.7 1401.2,1127.2 1401,1125.7C1400.7,1123.9 1400.9,1122.5 1401.5,1121.8C1402,1121.2 1402.2,1120.2 1402,1119.5C1401.4,1117.8 1398.9,1119.3 1397.4,1122.2C1395.8,1125.3 1396.6,1137 1398.7,1141.2L1400.2,1144.1L1398.4,1143.6C1397.4,1143.3 1395.7,1142.9 1394.6,1142.6C1391.8,1142 1388.8,1139 1388.8,1136.9C1388.8,1135.9 1390,1133.8 1391.4,1132.2L1394,1129.3L1392.1,1127.3L1390.2,1125.3L1388,1127.2C1385.6,1129.2 1383.2,1129.1 1381.8,1127C1381.4,1126.3 1379.9,1124.7 1378.5,1123.3C1376.4,1121.2 1375.5,1120.8 1372.5,1120.8C1367.5,1120.8 1362.7,1122.5 1358.2,1125.7C1356.1,1127.2 1354.2,1128.3 1353.9,1128.1C1353.7,1127.9 1353.3,1126.5 1353.1,1125.1C1352.7,1122.5 1352.7,1122.5 1355.9,1122.1C1357.7,1121.9 1365.2,1120.6 1372.7,1119.3C1386.6,1116.9 1386.9,1116.8 1392.6,1115.9C1394.5,1115.6 1396.7,1115.2 1397.5,1115C1398.3,1114.8 1400,1114.5 1401.3,1114.3L1403.6,1113.9L1404.9,1120.9C1405.6,1124.7 1406.9,1130 1407.7,1132.5L1409.2,1137.2L1421,1137.2L1420.8,1140.5C1420.7,1142.3 1420.5,1144 1420.3,1144.1C1420.1,1144.3 1417.9,1144.6 1415.4,1144.9C1410.9,1145.3 1410.7,1145.2 1409.8,1143.4Z"/>
    </g>
    <g id="US.ME" transform="matrix(1,0,0,1,-446.279,-555.352)">
        <path d="M1461.9,1025.7C1459.4,1022.4 1453.9,1005.5 1452,995.4C1451.8,994.4 1451.5,993 1451.3,992.3C1451.1,991.6 1451.3,990.9 1451.7,990.6C1452.9,989.9 1455.7,981.8 1456,978.2C1456.2,976.3 1456.7,973 1457.1,970.7C1457.5,968.4 1458,964.6 1458.3,962.2C1458.5,959.8 1459.6,955 1460.7,951.7L1462.7,945.6L1467.8,945.1C1470.6,944.8 1473.3,944.3 1473.8,943.9C1474.3,943.5 1475.5,943.3 1476.4,943.4C1477.3,943.5 1478.6,943.6 1479.2,943.6C1479.8,943.6 1481.4,944.7 1482.9,945.9C1485,947.7 1485.5,948.7 1485.4,951C1485.3,958 1490.7,971.5 1494.3,973.1C1495.3,973.6 1496.2,974.3 1496.2,974.8C1496.2,975.3 1497.2,976.9 1498.4,978.4C1500.1,980.4 1501.6,981.3 1504.4,982C1509,983.1 1510.3,984.4 1509,986.7C1506.9,990.6 1503.2,994 1499.9,995C1497.4,995.8 1494.8,997.7 1489.8,1002.5C1486.1,1006 1481.6,1010.1 1479.7,1011.5C1477.8,1012.9 1475,1015.7 1473.3,1017.7C1471.6,1019.7 1469,1022.9 1467.4,1024.7C1465.8,1026.6 1464.4,1028.2 1464.3,1028.3C1464,1028.3 1463,1027.2 1461.9,1025.7Z"/>
    </g>
    <g id="US.MI" transform="matrix(1,0,0,1,-446.279,-555.352)">
        <path d="M1241.7,1086.9C1241.7,1086.4 1242.2,1085.5 1242.8,1084.9C1243.4,1084.3 1243.9,1083 1243.9,1082C1243.9,1081 1244.6,1078 1245.5,1075.3C1246.8,1071.3 1247,1070 1246.3,1068.5C1245.8,1067.5 1245.4,1065.1 1245.4,1063.3C1245.4,1061.5 1245.1,1060 1244.8,1060C1244.5,1060 1243.4,1058.3 1242.4,1056.1C1240.3,1051.6 1240.2,1044.6 1242.2,1041.6C1242.9,1040.6 1243.5,1038.2 1243.7,1036.3C1243.9,1034.4 1244.5,1032.3 1245.1,1031.7C1245.7,1031.1 1246.2,1029.8 1246.2,1028.9C1246.2,1027.8 1246.9,1026.9 1248.1,1026.3C1249.1,1025.8 1250,1025.1 1250,1024.7C1250,1023.1 1251.5,1024 1252,1026C1252.7,1028.9 1252.9,1029.2 1254.2,1028.7C1254.8,1028.5 1255.3,1027.4 1255.3,1026.3C1255.3,1025.2 1255.8,1023.7 1256.3,1023C1256.8,1022.3 1257.1,1020.9 1257,1019.9C1256.7,1018.4 1257,1018 1258.4,1017.8C1259.9,1017.6 1260.2,1017.1 1260.3,1014.6C1260.5,1007.8 1260.3,1008.3 1263.6,1008.8C1265.5,1009.1 1266.9,1008.9 1267.2,1008.3C1267.6,1007.7 1268.8,1008.4 1270.9,1010.4C1272.6,1012.1 1275.4,1013.7 1277,1014.2C1282.2,1015.6 1284.2,1018.6 1284.9,1025.8C1285.7,1032.9 1285.5,1034.2 1283.7,1036.8C1282.3,1038.7 1281.8,1040.1 1281.6,1042.1C1281.6,1042.4 1281,1042.7 1280.4,1042.7C1279.6,1042.7 1279.3,1043.5 1279.3,1045.2C1279.3,1046.6 1279.8,1048.2 1280.4,1048.7C1281.7,1049.8 1282.2,1049.5 1288.1,1043.9L1292,1040.2L1294.6,1043C1297,1045.7 1298.7,1049.6 1299.4,1054.4C1299.6,1055.6 1300,1057.5 1300.3,1058.5C1301.3,1061.7 1299.3,1066.7 1295.5,1070.5C1293.6,1072.3 1292.1,1074.3 1292.1,1074.8C1292.1,1075.3 1291.6,1076.6 1290.9,1077.6C1290.2,1078.6 1289.7,1081 1289.6,1082.8L1289.5,1086.2L1285.3,1086.3C1283,1086.3 1280.4,1086.5 1279.6,1086.7C1278.2,1087 1268,1087.1 1263.5,1086.9C1262.5,1086.8 1257.2,1087 1251.7,1087.4C1244.4,1087.6 1241.7,1087.5 1241.7,1086.9Z"/>
        <path d="M1224.6,1014.8C1221.9,1010.5 1220.8,1009.4 1217.5,1007.8C1212.4,1005.4 1203.7,1002.4 1197.2,1000.7C1192.8,999.6 1191.8,999 1190.6,996.9C1189.3,994.5 1189.3,994.4 1190.7,993C1191.5,992.2 1192.9,991.5 1193.7,991.5C1196.5,991.5 1203,989.1 1205.5,987.1C1211.7,982.3 1218.2,978.6 1219.3,979.3C1219.6,979.5 1219.2,980.2 1218.4,980.8C1216.3,982.2 1214.6,985.8 1215.3,987C1215.9,988 1217.5,988.4 1220.4,988.5C1221.3,988.5 1223.8,990.1 1225.9,991.9C1230.2,995.7 1230.8,995.8 1241.3,992.9C1251.5,990.1 1260.3,990.4 1261.5,993.5C1261.8,994.2 1262.5,994.4 1263.2,994.2C1265.4,993.5 1272.1,997.1 1273.5,999.7C1275,1002.6 1275,1003.4 1273.2,1003.9C1269.9,1005 1267.9,1005.2 1260.4,1005.4C1256.1,1005.5 1251.6,1006 1250.4,1006.5C1249.2,1007 1246.9,1007.3 1245.1,1007.3C1242.4,1007.3 1241.7,1007.7 1240.3,1009.5C1239.3,1010.9 1238,1011.7 1236.9,1011.7C1235.3,1011.7 1229.6,1016.1 1229.6,1017.3C1229.6,1017.6 1229.2,1018.3 1228.6,1018.8C1227.9,1019.8 1227.2,1019.1 1224.6,1014.8Z"/>
    </g>
    <g id="US.MN" transform="matrix(1,0,0,1,-446.279,-555.352)">
        <path d="M1103.5,1048.6C1103.9,1038.3 1104.5,1027 1105,1022.8C1105.3,1019.6 1105.1,1017.1 1104.1,1013.9C1102.8,1009.7 1102.8,1009.4 1104.1,1007.3C1105.2,1005.4 1105.4,1003.9 1104.9,995.5C1104.6,990.3 1104.3,984.4 1104.1,982.6C1103.9,980.7 1103.6,971.4 1103.3,961.9L1102.8,944.5L1108,944.8C1124.4,945.7 1124.9,945.7 1126,944.6C1126.6,944 1127.1,942.9 1127.1,942.1C1127.1,940.4 1127.4,940.4 1129.3,941.4C1130.3,941.9 1130.9,943.4 1131.2,946.4C1131.8,951.4 1133.1,953 1137.1,953.7C1138.7,954 1140.6,954.7 1141.3,955.3C1142.1,956 1144.7,956.4 1149.4,956.5C1156.1,956.6 1156.5,956.7 1159.1,959.1C1160.6,960.5 1162.3,961.6 1163,961.6C1163.6,961.6 1165.6,962.7 1167.5,963.9C1170.5,965.9 1171.4,966.2 1175.7,966C1180.7,965.9 1190,967 1192.4,967.9C1193.6,968.4 1193.5,968.6 1191.8,970.2C1190.7,971.2 1189.1,972 1188.2,972C1185.1,972 1180.4,974.7 1178.7,977.5C1177.8,979 1176,980.8 1174.8,981.5C1173.6,982.2 1172.6,983.1 1172.6,983.4C1172.6,983.7 1172.1,984 1171.6,984C1171,984 1170,984.8 1169.4,985.7C1168.8,986.7 1166.7,988.6 1164.8,990C1160.9,993 1160.6,993.5 1160.1,998.6C1159.9,1000.7 1159.6,1003 1159.5,1003.8C1159.4,1004.6 1159.2,1005.5 1159.2,1005.7C1159.2,1005.9 1157.9,1006.7 1156.5,1007.5C1153.5,1009.1 1151.7,1012 1152.3,1014.3C1152.9,1016.6 1152.9,1026.1 1152.2,1028C1151.7,1029.3 1152,1030.1 1153.4,1031.4C1157.9,1035.8 1168.6,1045.2 1170.1,1046.1C1171.7,1047.1 1173.5,1050.7 1173.5,1052.9C1173.5,1053.7 1166.3,1053.8 1138.4,1053.6L1103.3,1053.4L1103.5,1048.6Z"/>
    </g>
    <g id="US.MO" transform="matrix(1,0,0,1,-446.279,-555.352)">
        <path d="M1193.7,1204.4C1192.7,1203.9 1191.7,1203.5 1191.6,1203.4C1191.5,1203.3 1191.7,1201.7 1192.1,1199.8C1193.2,1193.8 1194.9,1194.1 1156.5,1193.8L1122.8,1193.6L1122.7,1191.7C1122.2,1182.8 1122.5,1176.7 1123.7,1171.5C1124.1,1169.6 1124.1,1153.9 1123.6,1147.1C1123.4,1145 1123.3,1142.6 1123.3,1141.7C1123.3,1140.8 1122,1138.8 1120.6,1137.3C1118.1,1134.8 1118,1134.5 1119,1132.9C1121.1,1129.7 1120.8,1127.6 1117.9,1125.1C1116.1,1123.5 1114.9,1121.6 1114.4,1119.4C1113.9,1117.6 1113.4,1115.6 1113.1,1115C1112.7,1114 1113.4,1113.9 1117.4,1114.1C1120,1114.2 1132.1,1114.6 1144.3,1114.8C1156.5,1115.1 1167,1115.6 1167.7,1116C1168.4,1116.4 1168.9,1117.3 1168.9,1118C1168.8,1119.4 1169.6,1125.8 1170.2,1128.7C1170.4,1129.7 1172.6,1132.6 1175.1,1135.1C1178,1138 1179.8,1140.6 1180.3,1142.4C1180.8,1144.2 1182.1,1146 1183.7,1147.3C1189.9,1152.1 1189.4,1151 1188.3,1157.4C1187.7,1160.6 1187.5,1163.5 1187.7,1163.8C1187.9,1164.1 1190.7,1166.4 1193.9,1168.8C1197.1,1171.2 1200,1173.7 1200.4,1174.4C1200.8,1175.1 1201.3,1177.6 1201.6,1180.1C1202.2,1185.1 1202.4,1185.8 1203.8,1185.8C1204.4,1185.8 1204.6,1186.8 1204.4,1189C1204.2,1191.4 1203.6,1192.7 1201.8,1194.3C1200,1195.9 1199.2,1197.4 1198.7,1200.7C1197.7,1205.3 1196.9,1205.9 1193.7,1204.4Z"/>
    </g>
    <g id="US.MS" transform="matrix(1,0,0,1,-446.279,-555.352)">
        <path d="M1202.5,1322C1199.7,1319.7 1199.6,1319.5 1199.4,1313.9C1199.3,1310.7 1199,1307.9 1198.8,1307.5C1198.6,1307.2 1193.9,1306.8 1188.4,1306.6C1182.9,1306.5 1177.1,1306.3 1175.4,1306.2C1173.7,1306.1 1171.6,1306 1170.7,1305.9C1168,1305.8 1168.6,1302.1 1172.5,1295.1C1174.4,1291.7 1176.8,1286.6 1177.8,1283.9C1179.5,1279.2 1179.6,1278.7 1178.5,1276.6C1177.7,1275.1 1177.2,1271.2 1176.9,1264.4C1176.4,1252.6 1177.1,1249.5 1181.7,1243.5C1183.6,1241.1 1185,1238.2 1185.3,1236.4C1185.9,1232.7 1186.4,1231.7 1189.2,1229.1L1191.4,1227L1207.7,1226.6L1224,1226.2L1224,1228.3C1224,1229.5 1223.7,1233.3 1223.3,1236.8C1222.9,1240.3 1222.4,1245.7 1222.1,1248.8C1221.8,1251.9 1221.5,1255.3 1221.4,1256.3C1220.6,1261.8 1220,1282.3 1220.2,1300.4L1220.3,1320.8L1218.6,1320.8C1212.1,1321 1207.9,1321.8 1206.8,1323C1205.4,1324.4 1205.2,1324.3 1202.5,1322Z"/>
    </g>
    <g id="US.MT" transform="matrix(1,0,0,1,-446.279,-555.352)">
        <path d="M998.7,1009.3C998.5,1009.1 997.4,1008.8 996.1,1008.6C993.7,1008.2 981.2,1005.6 957.5,1000.6C949.5,998.9 936.6,996.2 929,994.6C921.4,993 913.6,991.4 911.8,990.9C906.8,989.7 906.7,989.8 905.1,993.6C903.6,997.1 903.5,997.2 900.3,997.1C898.5,997 895.8,996.6 894.3,996.1C892.8,995.6 889.1,995.2 885.9,995.2C878.8,995.1 878.7,995 876.6,983.4C874.5,972 873.6,968.4 872.5,968.3C872,968.3 870,968.3 868,968.4C864.4,968.5 864.3,968.5 864.9,966.5C865.4,964.6 867.2,962.5 868.5,962.5C868.8,962.5 869.1,961.3 869.1,959.8C869.1,958.3 869.8,956.2 870.6,955C872.9,951.8 872.8,948.2 870.4,945.6C869.3,944.4 867.8,941.6 867.2,939.3C866.5,937 865,933.6 863.8,931.6C860.4,926.1 860.1,918.5 862.8,907L864.8,898.2L873.9,901.1C882.4,903.8 917.7,913.7 922.7,914.7C923.9,915 928.8,916.2 933.6,917.5C941,919.5 989.9,930.6 999.5,932.6C1001.3,933 1003,933.4 1003.3,933.5C1003.6,933.7 1006,934 1008.7,934.3C1011.4,934.6 1013.6,934.9 1013.8,935C1013.9,935.1 1013.7,937 1013.3,939.3C1012.5,943.6 1012.1,946.1 1011.4,950.8C1011.1,952.4 1010.8,954.4 1010.6,955.3C1010.3,956.8 1010,958.4 1009.2,963.6C1007.8,971.8 1002,1006 1001.6,1007.7C1000.9,1009.4 999.6,1010.2 998.7,1009.3Z"/>
    </g>
    <g id="US.NC" transform="matrix(1,0,0,1,-446.279,-555.352)">
        <path d="M1382.7,1233.5C1381.3,1232.5 1379.1,1231.1 1377.9,1230.5C1376.7,1229.9 1372.3,1226.7 1368.2,1223.4L1360.8,1217.4L1352.3,1217.7C1345.1,1218 1343.6,1217.8 1342.1,1216.7C1339.3,1214.5 1337.7,1214.2 1329.4,1214.3C1321.1,1214.4 1315.3,1215.6 1308.2,1218.8C1304.3,1220.5 1303.5,1220.7 1293.1,1221.4C1289.4,1221.7 1285.7,1222 1284.9,1222.2C1283.5,1222.5 1283.6,1222.4 1285.1,1221.2C1286,1220.5 1288.2,1218.4 1290,1216.6C1291.7,1214.8 1294.8,1212.5 1296.9,1211.4C1299,1210.4 1302.3,1208 1304.4,1206.2C1306.5,1204.4 1310.8,1201.6 1314.2,1200C1320.3,1197 1323.8,1194.1 1324.7,1191.1C1325.4,1188.7 1326.9,1188.2 1334.4,1187.6C1338.1,1187.3 1341.8,1187 1342.6,1186.8C1343.5,1186.7 1346.2,1186.3 1348.6,1186C1351,1185.7 1353.7,1185.4 1354.6,1185.2C1355.5,1185 1362.6,1184.1 1370.5,1183C1378.3,1182 1385.4,1181 1386.3,1180.8C1387.2,1180.6 1389.4,1180.3 1391.2,1180C1396.5,1179.2 1406.7,1177.3 1411.9,1176.2C1413.1,1175.9 1413.7,1176.4 1414.5,1178.1C1415.4,1180.2 1415.3,1180.5 1413.4,1182.2L1411.4,1183.9L1415.1,1184.4C1417.9,1184.8 1419.3,1185.5 1420.8,1187.1C1423.3,1190 1423.3,1190.9 1420.1,1194.3C1418.7,1195.9 1417.3,1197.8 1417,1198.5C1416.6,1199.6 1413.4,1200.3 1409.9,1199.9C1409.7,1199.9 1409.5,1201.4 1409.5,1203.2L1409.6,1206.5L1412.4,1206.5C1415.6,1206.5 1415.9,1207.2 1413.5,1210C1410.1,1213.9 1408.9,1214.8 1406.3,1214.8C1404,1214.8 1403,1215.6 1397.8,1220.9C1392.7,1226.2 1391.9,1227.3 1391.9,1229.7C1391.9,1232.2 1391.6,1232.5 1388.9,1233.7C1387.3,1234.4 1385.8,1235 1385.7,1235C1385.4,1235.4 1384.1,1234.5 1382.7,1233.5Z"/>
    </g>
    <g id="US.ND" transform="matrix(1,0,0,1,-446.279,-555.352)">
        <path d="M1097.5,1004C1097.4,1003.9 1095.3,1003.6 1092.8,1003.3C1090.3,1003 1087.5,1002.7 1086.4,1002.5C1085.4,1002.3 1083,1002 1081.2,1001.8C1079.3,1001.6 1076.6,1001.2 1075.2,1001C1071,1000.5 1067.6,1000 1063.2,999.5C1060.9,999.2 1058.2,998.9 1057.2,998.7C1056.2,998.5 1048.6,997.6 1040.3,996.5C1032.1,995.5 1024.3,994.4 1023.1,994.2C1019.9,993.7 1016.3,993.2 1011,992.7L1006.4,992.2L1008.5,980.1C1009.6,973.4 1010.7,966.9 1011,965.6C1011.2,964.3 1011.6,962.2 1011.8,961.1C1012,960 1013,953.9 1014,947.7C1015,941.5 1015.9,936.1 1015.9,935.8C1015.9,935.3 1025.6,935.8 1029.2,936.5C1029.9,936.6 1032.9,937 1035.8,937.3C1038.7,937.6 1041.9,937.9 1042.9,938.1C1043.9,938.2 1046.8,938.6 1049.3,938.8C1051.8,939.1 1055,939.4 1056.4,939.6C1061.1,940.2 1078.4,942.2 1082.3,942.6C1084.4,942.8 1087.2,943.1 1088.7,943.3C1090.2,943.5 1093.2,943.8 1095.5,944.1C1097.8,944.4 1099.8,944.9 1100.1,945.3C1100.3,945.7 1100.6,951.5 1100.7,958.2C1100.8,964.9 1101,971.6 1101.1,973C1101.3,975.3 1102.2,993.8 1102.5,1001.5C1102.6,1004 1102.4,1004.1 1100.2,1004.2C1098.8,1004.1 1097.7,1004.1 1097.5,1004Z"/>
    </g>
    <g id="US.NE" transform="matrix(1,0,0,1,-446.279,-555.352)">
        <path d="M1104.8,1122C1101.9,1121.7 1097.5,1121.3 1095,1121C1092.5,1120.8 1085.9,1120 1080.4,1119.4C1074.9,1118.8 1068.6,1118.1 1066.5,1117.9C1064.4,1117.7 1061.6,1117.4 1060.1,1117.2C1056.8,1116.8 1052.7,1116.3 1042.9,1115.3C1038.6,1114.8 1034.2,1114.3 1033.1,1114.2C1031.5,1114 1020.7,1112.9 1018.5,1112.7C1017.5,1112.6 1017.8,1106.5 1019.3,1096.9C1019.9,1093.1 1021,1093.4 995.6,1089.3C994.6,1089.1 992.9,1088.8 991.8,1088.6L989.9,1088.2L992.9,1070.4C994.5,1060.6 996,1052.5 996.1,1052.3C996.3,1052.1 1013.6,1054.1 1023.7,1055.6C1024.9,1055.8 1030.3,1056.5 1035.7,1057.1C1041.1,1057.8 1046.3,1058.4 1047.3,1058.6C1048.3,1058.8 1051,1059.1 1053.2,1059.4C1055.4,1059.7 1057.8,1060 1058.4,1060.1C1059.1,1060.2 1061.8,1060.6 1064.5,1060.8C1071.9,1061.6 1074.5,1062.5 1076.9,1065C1079.1,1067.3 1079.2,1067.3 1084.2,1066.9C1088.5,1066.5 1089.8,1066.7 1092.4,1068.1C1094.1,1069 1096.4,1069.9 1097.4,1070.2C1099,1070.6 1099.3,1071.2 1099.3,1073.7C1099.3,1075.3 1100.2,1078.4 1101.3,1080.5C1102.4,1082.7 1103.4,1086.4 1103.7,1089.1C1104,1091.7 1104.3,1094.4 1104.4,1095C1104.5,1095.6 1104.9,1098.5 1105.2,1101.4C1105.5,1104.7 1106.5,1108.1 1107.7,1110.4C1109.2,1113.2 1112.2,1121.3 1112.3,1122.5C1112.7,1122.8 1112.7,1122.8 1104.8,1122Z"/>
    </g>
    <g id="US.NH" transform="matrix(1,0,0,1,-446.279,-555.352)">
        <path d="M1443.7,1041.3C1442.8,1041.1 1442,1040.8 1442,1040.5C1442,1040.2 1441.8,1034 1441.6,1026.6L1441.2,1013.3L1443.9,1010.3C1445.8,1008.2 1446.5,1006.8 1446.2,1005.6C1444.4,997.5 1444.4,997.3 1445.9,995.2C1448.2,992 1449.1,992.3 1449.8,996.8C1450.3,999.9 1452.3,1007.2 1455.3,1016.7C1457.2,1023 1460.4,1028.5 1462.8,1030C1463.3,1030.3 1463.8,1031.5 1463.8,1032.5C1463.8,1033.9 1463.5,1034.3 1462.6,1034C1461.8,1033.7 1460.3,1034.7 1458,1036.9C1455.3,1039.6 1453.9,1040.3 1451.1,1040.7C1449.2,1041 1447.1,1041.3 1446.5,1041.4C1445.8,1041.6 1444.6,1041.5 1443.7,1041.3Z"/>
    </g>
    <g id="US.NJ" transform="matrix(1,0,0,1,-446.279,-555.352)">
        <path d="M1416.6,1122.8C1412.5,1120.8 1411.2,1118.7 1411.3,1114.6C1411.4,1112.8 1411.3,1110.9 1411.1,1110.4C1411,1109.9 1412.6,1107.7 1414.8,1105.4C1417,1103.1 1418.7,1100.9 1418.7,1100.5C1418.7,1100.1 1417.3,1098.7 1415.7,1097.4C1412,1094.4 1410.8,1092.4 1411.9,1091C1412.8,1090 1413,1089 1413.7,1083.1C1413.9,1081.3 1414.4,1079.5 1414.7,1079.2C1415.6,1078.3 1426.3,1082.1 1427.7,1083.9C1428.6,1085 1428.8,1085.9 1428.3,1087.1C1427.6,1089.1 1428.3,1093.5 1430,1097.5C1430.7,1099.1 1431.1,1101.3 1430.9,1102.4C1430.7,1103.5 1430.4,1105.4 1430.2,1106.7C1429.7,1110.5 1424,1121.7 1421.9,1123.1C1419.9,1124.6 1420.5,1124.7 1416.6,1122.8Z"/>
    </g>
    <g id="US.NM" transform="matrix(1,0,0,1,-446.279,-555.352)">
        <path d="M968.3,1266.8C964.2,1266 959.6,1265.2 958.2,1265C954.3,1264.4 938.7,1261.6 935.7,1261.1C934.3,1260.8 929.7,1260.6 925.6,1260.6L918.1,1260.6L917.9,1262.7C917.6,1265.1 916.9,1265.2 911.5,1263.7C909.4,1263.1 905.4,1262.4 902.8,1262.2C900.1,1261.9 897.2,1261.5 896.2,1261.3C892.9,1260.5 890.9,1261.6 889.9,1264.8C889,1267.7 888.9,1267.8 885.6,1267.8C881.3,1267.8 876.4,1266.4 876.4,1265.1C876.4,1264.1 881.4,1241.4 885.5,1223.9C886.8,1218.5 887.9,1213.4 888.1,1212.4C888.3,1211.4 889,1208.4 889.6,1205.6C890.2,1202.9 890.9,1199.9 891.1,1199.1C891.3,1198.3 893.5,1188.2 896.2,1176.6L901,1155.6L903.2,1155.7C904.4,1155.7 906.5,1156 908,1156.2C916.8,1157.8 950.6,1164.3 951.5,1164.6C952.1,1164.8 953.8,1165.1 955.3,1165.3C958.8,1165.8 984.7,1170.8 989.3,1171.8C992.8,1172.6 992.9,1172.7 992.5,1175C992.3,1176.3 992,1178.2 991.8,1179.2C991.6,1180.2 991.3,1182.3 991,1183.7C990.3,1187.6 989.9,1190.3 989,1195.7C988,1201.6 987.7,1203.6 987.2,1206.6C987,1207.9 984.8,1221.2 982.3,1236.2C976.7,1270.4 977,1268.4 976.4,1268.3C976.1,1268.2 972.5,1267.6 968.3,1266.8Z"/>
    </g>
    <g id="US.NV" transform="matrix(1,0,0,1,-446.279,-555.352)">
        <path d="M801.6,1160.9C800.3,1158.3 797.6,1153.2 795.6,1149.5C793.6,1145.8 789.5,1138 786.5,1132.3C783.5,1126.5 780.8,1121.5 780.5,1121.1C780.2,1120.7 777.8,1116.3 775.3,1111.3C772.7,1106.4 769.6,1100.4 768.4,1098.2C767.2,1095.9 764.6,1091.2 762.8,1087.7C761,1084.2 758.1,1078.8 756.4,1075.7C751.3,1066.2 751,1068.4 761.5,1038.7C766.6,1024.2 771.1,1012.1 771.5,1011.7C772.2,1011 778.9,1013.2 799.7,1020.9C805.5,1023 815.6,1026.5 822.2,1028.5C828.8,1030.6 837.9,1033.4 842.4,1034.8C846.9,1036.2 850.7,1037.4 850.8,1037.6C851,1037.8 826.3,1123.7 824.2,1130C823.8,1131.2 823.3,1133.1 823.1,1134.1C822.9,1135.1 821.8,1138.5 820.6,1141.6C818.3,1147.6 818.6,1147.4 813.2,1146.6C809,1146 805.5,1152.2 805.4,1160.7C805.2,1165.9 804.2,1165.9 801.6,1160.9Z"/>
    </g>
    <g id="US.NY" transform="matrix(1,0,0,1,-446.279,-555.352)">
        <path d="M1431.2,1089.6C1431,1089.1 1431,1087.7 1431.2,1086.4C1431.8,1082.7 1429.2,1080.6 1420.7,1077.8C1413.1,1075.3 1412.3,1074.8 1406,1067.4L1403.2,1064.1L1390.5,1066.1C1383.5,1067.2 1376.9,1068.2 1375.9,1068.4C1374.9,1068.6 1367.3,1069.8 1359,1071C1350.8,1072.3 1343.5,1073.5 1342.8,1073.7C1342,1073.9 1341.4,1073.5 1341.2,1072.4C1340.8,1070.8 1342.9,1067.8 1349.5,1060.8C1350.8,1059.4 1351.9,1057.9 1351.9,1057.5C1351.9,1057.1 1351.1,1055.1 1350,1053.1C1347.8,1048.7 1347.7,1047.9 1349.4,1047.8C1350.1,1047.8 1351.3,1047.3 1352.1,1046.7C1353.1,1046 1356.4,1045.6 1363.9,1045.6C1375.3,1045.5 1376.6,1045.2 1380.2,1042.2C1384,1039 1385,1035.9 1383.8,1030.6L1382.8,1026.2L1387.2,1021.1C1389.6,1018.3 1392.3,1015 1393.2,1013.7C1394.1,1012.4 1396.6,1009.9 1398.8,1008.2L1402.8,1005L1409,1005.1C1412.4,1005.2 1416,1005 1416.9,1004.7C1418.3,1004.2 1418.6,1004.5 1419.3,1006.6C1420.5,1010.4 1421,1013.8 1421.2,1019.6C1421.3,1024.1 1421.6,1025.3 1423.3,1027.2C1427.1,1031.7 1430.4,1048.5 1429.8,1060.6C1429.5,1065.9 1429.7,1069.3 1430.4,1071.7C1431,1073.6 1431.4,1076 1431.4,1077.1C1431.4,1078.2 1431.7,1079.2 1432.1,1079.2C1432.6,1079.2 1432.6,1079.9 1432.1,1081C1431.7,1082.2 1431.7,1083 1432.1,1083.3C1432.5,1083.5 1432.8,1083.4 1432.8,1083.1C1432.8,1082.2 1436.4,1080.6 1439.6,1080.1C1441,1079.9 1443.2,1079 1444.5,1078.1C1447.8,1075.6 1451.7,1074.4 1452.5,1075.6C1452.9,1076.2 1452.3,1077.2 1451.1,1078.4C1450,1079.4 1447.9,1081.3 1446.4,1082.7C1443.3,1085.8 1431.7,1090.9 1431.2,1089.6Z"/>
    </g>
    <g id="US.OH" transform="matrix(1,0,0,1,-446.279,-555.352)">
        <path d="M1305.1,1148C1303.7,1146.3 1303.3,1146.2 1297.6,1146.6C1290,1147.1 1284.1,1145.9 1281.4,1143.3C1280.1,1142 1278.2,1141.2 1276,1141C1272.6,1140.6 1272.6,1140.5 1272.5,1137.9C1272.5,1136.4 1272.3,1132.5 1272.2,1129.2C1272,1125.9 1271.7,1119.1 1271.5,1114.1C1271.3,1109.1 1270.9,1101.6 1270.6,1097.4C1270.2,1091.3 1270.4,1089.8 1271.2,1089.8C1271.8,1089.8 1273.1,1089.6 1274.1,1089.5C1275.1,1089.4 1279.3,1089.1 1283.5,1088.8C1287.6,1088.5 1291.2,1088.2 1291.4,1088.2C1291.6,1088.2 1293.8,1089.1 1296.2,1090.3C1300.9,1092.5 1305,1092.9 1307,1091.2C1307.7,1090.6 1309.8,1089.6 1311.6,1088.9C1313.5,1088.2 1315.7,1087 1316.5,1086.3C1321.4,1081.9 1328.7,1077.2 1328.9,1078.4C1330.2,1090.2 1330,1107.5 1328.5,1119.1C1328.4,1119.7 1327.7,1122 1326.9,1124.2C1325.7,1127.5 1324.8,1128.6 1322.2,1130.1C1318.5,1132.3 1316.4,1134.9 1315.7,1138.3C1315.3,1140.2 1314.7,1140.8 1313,1141.2C1311.4,1141.5 1310.7,1142.2 1310.4,1143.7C1309.9,1146.3 1308.4,1149.3 1307.4,1149.5C1306.9,1149.7 1305.9,1149 1305.1,1148Z"/>
    </g>
    <g id="US.OK" transform="matrix(1,0,0,1,-446.279,-555.352)">
        <path d="M1114.5,1247.3C1111.3,1245.5 1108.2,1244.4 1106.6,1244.4C1105.2,1244.4 1098.6,1244.6 1092,1244.8C1081.9,1245.2 1079.5,1245 1076.6,1244C1074.7,1243.3 1072,1242.6 1070.6,1242.3C1069,1242.1 1066.7,1240.7 1064.7,1239C1062.3,1236.8 1060.6,1236 1057.9,1235.7C1050.9,1234.9 1047.7,1233.8 1045.7,1231.6C1044.5,1230.3 1042,1228.9 1039.4,1228.1L1035.1,1226.8L1035.5,1223C1035.7,1220.9 1036.1,1216.9 1036.3,1214C1036.5,1211.1 1036.9,1207.6 1037.1,1206.1C1037.3,1204.7 1037.6,1200.8 1037.9,1197.5C1038.2,1194.2 1038.5,1190.6 1038.7,1189.5C1039.1,1187.2 1038.6,1186.8 1035.1,1186.3C1031,1185.7 1009.9,1182.9 1002.6,1182C993.2,1180.9 993.7,1181.1 994.3,1177.1C994.6,1175.2 994.9,1173.5 995,1173.4C995.1,1173.3 997.5,1173.7 1000.4,1174.2C1003.3,1174.7 1008.3,1175.4 1011.6,1175.7C1014.9,1176 1019.1,1176.3 1021,1176.5C1022.9,1176.7 1026.6,1177 1029.2,1177.2C1031.8,1177.4 1035.6,1177.8 1037.4,1178C1039.3,1178.2 1043,1178.5 1045.6,1178.8C1048.2,1179.1 1052,1179.4 1053.8,1179.6C1055.7,1179.8 1059.7,1180.1 1062.8,1180.4C1065.9,1180.6 1069.6,1181 1071,1181.1C1072.4,1181.3 1076.2,1181.6 1079.2,1181.9C1082.2,1182.2 1086,1182.5 1087.4,1182.7C1088.8,1182.9 1092.9,1183.2 1096.4,1183.5C1099.9,1183.8 1103.6,1184.1 1104.6,1184.2C1105.6,1184.3 1109.3,1184.7 1112.8,1185C1116.3,1185.3 1119.2,1185.6 1119.3,1185.6C1119.7,1186 1120.4,1207.9 1120.3,1216.1C1120.1,1236 1119.7,1249.9 1119.5,1250.2C1120,1250 1117.5,1248.9 1114.5,1247.3Z"/>
    </g>
    <g id="US.OR" transform="matrix(1,0,0,1,-446.279,-555.352)">
        <path d="M789.1,1014.5C778.4,1010.6 766.1,1006.1 761.7,1004.5C749.8,1000.1 720.2,989.4 714.5,987.4C712.6,986.8 711,986.1 710.9,986C710.8,985.9 711,984.7 711.4,983.3C711.8,981.9 712.4,979.4 712.5,977.7C713.3,970.4 715,966.7 720.3,960.9C723.1,957.8 726.8,952.9 728.6,950C732.2,944 746.7,914.8 746.7,913.5C746.7,913 747.2,912.9 748,913.2C748.7,913.5 750.4,914 751.7,914.4C754,915.1 757.8,918.7 758,920.5C758.1,921 758.2,921.7 758.3,922.1C758.4,922.5 758.5,924.1 758.6,925.5C758.7,929.3 760.7,931 766.3,932.2C768.9,932.7 773.9,934.4 777.4,936C780.9,937.5 785.3,939.1 787.2,939.4C789.1,939.7 791.1,940 791.7,940.2C792.3,940.3 796.2,940.6 800.2,940.9C808.7,941.5 811,942.1 824.2,946.8C829.5,948.7 833.9,950.3 834,950.3C834.1,950.3 834.2,950.7 834.2,951.2C834.3,951.7 834.7,954.2 835.2,956.8L836.1,961.5L833.4,964.5C831.9,966.2 830.7,967.8 830.7,968.2C830.7,969.4 826.6,973.4 824.2,974.6C821.4,976 820.8,978 821.5,983C822.3,988.1 822.3,988.1 819.8,990.3C818.1,991.9 817.6,993.1 817.3,995.9C817,999.3 809.6,1021.6 808.8,1021.5C808.8,1021.6 799.8,1018.4 789.1,1014.5Z"/>
    </g>
    <g id="US.PA" transform="matrix(1,0,0,1,-446.279,-555.352)">
        <path d="M1336.4,1120.1C1336,1119.4 1335.2,1116.2 1334.7,1113.1C1333.6,1106.8 1333.5,1106.4 1333.3,1106.2C1333,1105.9 1332.7,1103.2 1332.2,1092.5C1331.9,1086.7 1331.6,1080.8 1331.4,1079.3C1331.2,1077.1 1331.5,1076.4 1333.1,1075.4C1334.2,1074.7 1335.8,1073.6 1336.8,1072.9C1338.4,1071.7 1338.5,1071.7 1339,1074.1L1339.5,1076.5L1343.6,1076C1345.8,1075.7 1348.4,1075.4 1349.3,1075.2C1350.2,1075 1353.1,1074.6 1355.8,1074.2C1358.5,1073.8 1362,1073.2 1363.7,1073C1365.3,1072.7 1374.7,1071.3 1384.5,1069.7L1402.3,1066.9L1404.9,1069.8C1406.3,1071.4 1407.5,1073 1407.5,1073.4C1407.5,1073.8 1408.7,1074.9 1410.1,1075.9C1411.5,1076.9 1412.6,1077.8 1412.4,1078C1412,1078.4 1411.4,1081.3 1410.8,1086.4C1410.5,1088.4 1410,1090.2 1409.7,1090.4C1408,1091.5 1409.2,1094.8 1412.4,1097.8L1415.8,1100.9L1411.3,1105.5C1408.8,1108 1405.9,1110.4 1404.8,1110.9C1403.7,1111.3 1398.4,1112.4 1393,1113.3C1387.6,1114.2 1382.6,1115 1381.8,1115.2C1381,1115.3 1374.2,1116.5 1366.8,1117.8C1349.2,1120.8 1350.5,1120.6 1343.4,1121.2C1337.8,1121.4 1337,1121.3 1336.4,1120.1Z"/>
    </g>
    <g id="US.RI" transform="matrix(1,0,0,1,-446.279,-555.352)">
        <path d="M1455.2,1064.6C1454.5,1061.8 1453.7,1058.8 1453.4,1057.8C1453,1056.3 1453.2,1056.1 1456,1056.1C1458.8,1056.1 1459.2,1056.4 1461.5,1059.9C1463.4,1062.8 1463.8,1064 1463.2,1065C1462.4,1066.2 1457.9,1069.6 1457,1069.6C1456.8,1069.6 1456,1067.3 1455.2,1064.6Z"/>
    </g>
    <g id="US.SC" transform="matrix(1,0,0,1,-446.279,-555.352)">
        <path d="M1346.6,1274.7C1345.6,1274.2 1343.9,1272.2 1342.9,1270.3C1341.9,1268.4 1340.9,1266.9 1340.6,1266.9C1339.6,1266.9 1336.2,1262.8 1336.2,1261.6C1336.2,1260.9 1334.9,1258.7 1333.4,1256.9C1331.9,1255 1329.6,1252.2 1328.4,1250.6C1327.2,1249 1324.3,1246.2 1322,1244.4C1319.7,1242.6 1316.2,1239 1314.1,1236.3C1312,1233.6 1309.1,1230.9 1307.7,1230.1C1304.2,1228.3 1303.2,1227 1303.7,1225C1304.2,1223.2 1307.8,1221.3 1316.4,1218.5C1325.4,1215.5 1341.5,1216.3 1341.5,1219.7C1341.5,1220.2 1344.7,1220.4 1350.8,1220.3C1358.1,1220.1 1360.4,1220.3 1361.5,1221.2C1362.3,1221.8 1363.4,1222.7 1364,1223.2C1364.6,1223.7 1367.2,1225.8 1369.6,1227.8C1372.1,1229.8 1375.6,1232.3 1377.5,1233.2C1379.4,1234.1 1381,1235 1381.2,1235.2C1381.4,1235.4 1380.2,1237.1 1378.5,1239C1374.8,1243.4 1374.1,1244.7 1373.4,1248.6C1373,1250.7 1372,1252.4 1370.1,1254.2C1368.6,1255.7 1366,1258.5 1364.3,1260.4C1362.6,1262.4 1358.4,1266.6 1354.9,1269.9C1348.8,1275.5 1348.4,1275.7 1346.6,1274.7Z"/>
    </g>
    <g id="US.SD" transform="matrix(1,0,0,1,-446.279,-555.352)">
        <path d="M1093.7,1066.1C1090.6,1064.5 1089.3,1064.2 1085.5,1064.5C1081.2,1064.8 1080.7,1064.7 1077.8,1062.4C1074.7,1059.9 1072.2,1059.2 1061,1058C1058.7,1057.7 1056.4,1057.4 1055.8,1057.3C1055.2,1057.1 1052.6,1056.8 1050.2,1056.6C1047.7,1056.3 1044.9,1056 1043.8,1055.9C1042.8,1055.7 1040.4,1055.4 1038.6,1055.2C1036.7,1055 1033.9,1054.6 1032.2,1054.4C1030.5,1054.2 1025.5,1053.5 1021,1052.9C1016.5,1052.3 1010.7,1051.6 1008.2,1051.3C997.9,1050.1 996.9,1049.9 997.1,1048.3C997.3,1046.8 1001.5,1021.3 1002.2,1018C1002.4,1017 1002.7,1015 1003,1013.5C1003.2,1012 1004,1007.3 1004.7,1003C1006,995.5 1006.1,995.1 1007.9,995.2C1009.9,995.3 1019.2,996.2 1021.2,996.6C1023.1,996.9 1028.7,997.7 1033,998.2C1035.1,998.4 1037.6,998.8 1038.6,998.9C1039.6,999 1042.5,999.4 1045,999.7C1047.5,999.9 1050,1000.3 1050.6,1000.4C1051.2,1000.6 1056.1,1001.2 1061.5,1001.9C1071.4,1003.1 1091.2,1005.7 1095.3,1006.3C1096.5,1006.5 1098.5,1006.7 1099.6,1006.7C1101.4,1006.8 1101.6,1006.9 1100.9,1008.2C1100.3,1009.3 1100.5,1010.9 1101.7,1014.4C1102.7,1017.5 1103.1,1020.2 1102.8,1022.2C1102.1,1027 1101.7,1033.5 1101.3,1043.9C1101.1,1049.2 1100.6,1053.8 1100.2,1054C1099.8,1054.2 1099.5,1057.6 1099.6,1061.4C1099.6,1069.2 1099.6,1069.2 1093.7,1066.1Z"/>
    </g>
    <g id="US.TN" transform="matrix(1,0,0,1,-446.279,-555.352)">
        <path d="M1192.2,1223.9C1192.2,1221.8 1193.8,1217.5 1195.8,1214.3C1198.5,1210 1200.4,1205.2 1200.9,1201.3C1201.4,1197.8 1202.7,1196.1 1205.1,1195.9C1206,1195.8 1211,1195.6 1216.2,1195.3C1224,1194.9 1225.8,1194.5 1226.7,1193.4C1227.7,1192.1 1229.5,1192 1246.6,1191.6C1296.5,1190.4 1307.7,1190 1317.7,1189.2C1320.5,1189 1322.8,1189 1322.8,1189.3C1322.8,1190.3 1321,1193.1 1319.5,1194.4C1318.6,1195.1 1315.5,1196.9 1312.5,1198.3C1309.5,1199.7 1305.1,1202.6 1302.7,1204.6C1300.3,1206.7 1296.9,1209 1295,1209.8C1293.1,1210.6 1290.6,1212.5 1289.4,1214C1288.2,1215.5 1285.5,1217.8 1283.4,1219.1C1281.3,1220.4 1279.5,1221.7 1279.3,1222C1278.5,1223.1 1270.1,1223.4 1235.1,1223.8C1215.1,1224 1197.3,1224.4 1195.5,1224.5C1193.3,1224.7 1192.2,1224.5 1192.2,1223.9Z"/>
    </g>
    <g id="US.TX" transform="matrix(1,0,0,1,-446.279,-555.352)">
        <path d="M1059.5,1405.6C1056.1,1403.1 1054.9,1402.6 1051.8,1402.6C1048.9,1402.6 1047.3,1402.1 1044.2,1400C1042,1398.6 1038.9,1397 1037.3,1396.4C1035.6,1395.8 1033.9,1394.8 1033.3,1394.1C1032.8,1393.4 1031.9,1392.4 1031.3,1391.8C1030.3,1390.8 1028.8,1385 1029.5,1384.8C1029.7,1384.7 1028.9,1383.8 1027.8,1382.8C1026,1381.2 1025.7,1380.2 1025.3,1374.7C1024.9,1369.1 1024.5,1367.8 1021.7,1363.2C1016.8,1354.9 1011.6,1344.3 1011.1,1341.3C1010.3,1337.3 1006.5,1330.1 1003.9,1327.8C1002.6,1326.7 1000.9,1324.5 1000.2,1323C999.1,1320.8 998.2,1320.1 996,1319.7C994.5,1319.4 991.3,1318.8 989.1,1318.3C982.9,1316.9 978.1,1318.2 976.2,1321.6C975.4,1323 974.8,1324.6 974.8,1325.1C974.8,1325.6 973.7,1327.2 972.3,1328.7C970.3,1330.8 969.2,1331.4 967.2,1331.3C963.6,1331.2 962.8,1330.8 957.2,1325.7C949.6,1318.9 945.8,1313.6 945.5,1309.5C945.4,1307.7 944.7,1304.6 943.9,1302.6C943.1,1300.6 942.5,1298 942.5,1296.8C942.5,1294.6 940.5,1291.9 933.9,1285.2C932.2,1283.5 930.3,1280.9 929.6,1279.4C928.9,1277.9 927.7,1276.3 926.9,1275.9C926.1,1275.5 925.1,1274.1 924.7,1272.7C924.2,1271.4 923,1269.4 922,1268.3C920.8,1267 920.2,1265.7 920.4,1264.5C920.7,1262.8 921,1262.7 925.3,1262.7C927.8,1262.7 933.4,1263.3 937.6,1264C945.8,1265.4 948.5,1265.9 953,1266.5C954.5,1266.7 957.2,1267.2 958.8,1267.6C960.4,1268 963.5,1268.5 965.6,1268.7C967.7,1269 969.5,1269.3 969.8,1269.5C970.9,1270.1 979.5,1270.7 979.5,1270.1C979.5,1269.7 980,1266.6 980.6,1263.1C981.2,1259.6 981.9,1255.7 982,1254.5C982.2,1253.3 983.9,1242.8 985.8,1231.3C987.7,1219.8 989.4,1209.2 989.7,1207.8C989.9,1206.4 990.2,1204.6 990.4,1203.7C990.6,1202.8 990.9,1200.9 991.1,1199.5C991.3,1198 991.7,1196 991.9,1195C992.1,1194 992.5,1191.8 992.7,1190.2C993,1188.5 993.3,1186.7 993.4,1186C993.5,1185.4 993.7,1184.5 993.7,1184.1C993.7,1183.5 995.6,1183.6 1000.2,1184.2C1003.7,1184.7 1008.7,1185.4 1011.3,1185.6C1013.9,1185.9 1016.5,1186.2 1017.1,1186.4C1017.7,1186.6 1020.1,1186.9 1022.3,1187.2C1024.6,1187.5 1028.4,1188 1030.9,1188.4C1033.4,1188.8 1035.7,1189.1 1036,1189.1C1036.4,1189.1 1036.4,1191.7 1036.2,1194.9C1035.2,1207.2 1033.5,1225.5 1033.2,1226.7C1032.8,1228.4 1033.8,1229.1 1038.8,1230.7C1041.3,1231.5 1043.6,1232.8 1044.6,1234.1C1046.3,1236.3 1050.7,1237.7 1056.7,1238.3C1060.3,1238.6 1064.2,1240.7 1065.6,1243.1C1066.2,1244.1 1067.3,1244.6 1068.6,1244.6C1069.7,1244.6 1072.5,1245.3 1074.8,1246.2C1078.6,1247.6 1080.2,1247.7 1094.3,1247.5C1111.2,1247.3 1110.7,1247.2 1118.2,1252.3C1120,1253.5 1122.6,1254.8 1124,1255.2L1126.6,1255.9L1126.6,1288.6L1128.8,1293.4C1130,1296 1131.4,1300.3 1131.9,1302.8C1132.7,1306.9 1132.7,1307.6 1131.3,1310.3C1130.5,1311.9 1129.6,1315.4 1129.3,1318.1C1129,1320.8 1128.2,1324.7 1127.4,1326.7C1126.7,1328.8 1125.8,1331.5 1125.5,1332.9C1125.1,1334.8 1124.6,1335.3 1123.3,1335.3C1120.3,1335.3 1116.3,1337.4 1113.5,1340.5C1110.6,1343.6 1102.9,1348.3 1093.6,1352.6C1088.6,1354.9 1084.1,1357.4 1083.1,1358.6C1082.9,1358.8 1081,1360.3 1079,1362C1074.3,1365.7 1072,1368.3 1067.6,1374.6C1064.2,1379.5 1064.1,1379.8 1064.3,1384.7C1064.4,1387.5 1064.8,1390.8 1065.1,1392C1065.9,1394.6 1066.6,1406.5 1066.1,1407.9C1065.1,1409.2 1063.9,1408.8 1059.5,1405.6Z"/>
    </g>
    <g id="US.UT" transform="matrix(1,0,0,1,-446.279,-555.352)">
        <path d="M853.9,1038.6C853.3,1038.6 853.1,1038.9 852.9,1039.5C852.7,1040.2 851,1046 849.2,1052.4C847.3,1058.8 844.6,1068.2 843.1,1073.4C841.6,1078.6 839.2,1086.8 837.8,1091.8C836.4,1096.7 834,1104.9 832.6,1109.8C831.1,1114.7 829.7,1119.8 829.3,1121C828.9,1122.2 828,1125.6 827.2,1128.5C826.4,1131.4 825.7,1133.8 825.8,1133.8C825.9,1133.9 842.1,1138 861.9,1142.9C897.3,1151.8 899.8,1152.4 899.8,1151.8C899.8,1151.6 902.2,1140.9 905.1,1128C908,1115 910.6,1103.6 910.8,1102.6C911,1101.6 912.2,1096.2 913.4,1090.7C914.7,1085.2 915.8,1079.8 916,1078.7C916.2,1077.6 916.5,1076.5 916.7,1076.2C916.9,1075.9 915.6,1075.4 913.8,1075.1C907.6,1074.1 887.8,1069.6 887,1069.1C886.5,1068.8 886.3,1068.1 886.6,1067.5C887.2,1065.9 891,1052 891.1,1050.9C891.2,1050 878.5,1045.7 855.4,1038.8C854.7,1038.7 854.3,1038.6 853.9,1038.6Z"/>
    </g>
    <g id="US.VA" transform="matrix(1,0,0,1,-446.279,-555.352)">
        <path d="M1306.2,1181.9C1312.3,1174.6 1316.1,1171.4 1317.8,1172.1C1318.4,1172.3 1319,1172.8 1319,1173.1C1319,1173.4 1320.2,1173.9 1321.6,1174.2C1323.5,1174.6 1326.3,1174 1332.6,1171.9C1340.1,1169.4 1341.1,1168.9 1341.9,1166.8C1342.4,1165.5 1343.5,1163.6 1344.3,1162.6C1345.1,1161.6 1346.9,1157.9 1348.2,1154.4C1349.6,1150.9 1350.9,1147.8 1351.1,1147.5C1351.3,1147.2 1352.9,1146.8 1354.5,1146.5C1359.6,1145.7 1359.9,1145.5 1360.4,1142.1C1360.8,1139.5 1361.7,1138.3 1365,1135.3C1367.2,1133.3 1369,1131.4 1369,1131.2C1368.7,1129.3 1369.2,1128.9 1371,1129.6C1374,1130.8 1376.4,1130.5 1377.3,1128.8C1378.1,1127.3 1378.1,1127.3 1379.6,1128.8C1380.4,1129.6 1381.4,1130.3 1381.7,1130.3C1382.1,1130.3 1383.6,1130.8 1385.1,1131.4C1387.8,1132.5 1387.8,1132.6 1386.6,1134.4C1385.5,1136.2 1385.5,1136.5 1386.7,1139.3C1387.8,1141.7 1388.9,1142.7 1392.6,1144.5C1395.1,1145.7 1398.1,1146.9 1399.3,1147.2C1401.6,1147.8 1403.2,1149.9 1402.1,1151C1401.7,1151.5 1402.2,1152.7 1403.6,1154.3C1405.3,1156.4 1405.8,1157.6 1405.8,1160.4C1405.8,1163.4 1406.2,1164.2 1408.2,1166C1413,1170.3 1413.4,1170.8 1413.4,1172.3C1413.4,1173.1 1413,1173.8 1412.5,1173.9C1411.1,1174 1408.4,1174.5 1402.6,1175.7C1397.4,1176.8 1376.3,1180 1368.5,1180.9C1366.2,1181.2 1363.9,1181.5 1363.3,1181.7C1362.7,1181.8 1360.3,1182.2 1358,1182.4C1355.7,1182.6 1353.1,1183 1352.4,1183.1C1349.9,1183.6 1344.5,1184.2 1336,1185C1331.5,1185.4 1326.4,1185.9 1324.8,1186.1C1323.1,1186.3 1317.7,1186.6 1312.8,1186.9C1307.9,1187.2 1303.2,1187.5 1302.4,1187.7C1301.4,1188.1 1303.1,1185.5 1306.2,1181.9Z"/>
        <path d="M1410.1,1164.1C1409.5,1163.1 1410.4,1156.8 1411.8,1153.4C1412.4,1151.8 1412.7,1149.9 1412.5,1149.1C1412.1,1147.6 1413.6,1146.8 1417.1,1146.8C1418.5,1146.8 1418.8,1147.1 1418.3,1148.1C1418,1148.8 1417.2,1150.9 1416.5,1152.8C1415.8,1154.6 1414.7,1156.7 1414,1157.5C1412.5,1159.1 1412.3,1160.1 1413.6,1160.5C1414.2,1160.7 1414,1161.4 1413.1,1162.8C1411.7,1165 1410.9,1165.4 1410.1,1164.1Z"/>
    </g>
    <g id="US.VT" transform="matrix(1,0,0,1,-446.279,-555.352)">
        <path d="M1430.7,1041.7C1430.7,1038.6 1427,1027.4 1425.5,1025.8C1424.4,1024.6 1423.9,1022.9 1423.7,1018.6C1423.5,1015.5 1423.2,1012.2 1422.9,1011.1C1422.6,1010.1 1422.2,1008 1422,1006.5L1421.6,1003.8L1428.6,1002.2C1432.5,1001.3 1437.2,1000.4 1439.1,1000.1L1442.6,999.6L1443.1,1003.1C1443.6,1006.3 1443.4,1006.8 1441.3,1009.3L1439,1012L1439.2,1027.3C1439.4,1040.5 1439.3,1042.6 1438.3,1042.6C1437.7,1042.6 1435.7,1042.8 1434,1043C1430.9,1043.5 1430.7,1043.4 1430.7,1041.7Z"/>
    </g>
    <g id="US.WA" transform="matrix(1,0,0,1,-446.279,-555.352)">
        <path d="M823.1,943.9C812.2,940 807,938.9 796.6,938.1C788.7,937.5 784.3,936.5 778.2,933.7C775.1,932.3 770.4,930.7 767.7,930.1C765,929.5 762.4,928.5 761.9,927.9C761.4,927.3 761,925 761,922.9C761,919.5 760.7,918.8 757.8,915.7C755.5,913.2 753.7,912.1 751.1,911.4L747.6,910.5L748.2,907.7C749,904.2 752.4,882.9 753.4,875.3C753.8,872.2 754.6,869.5 755.1,869.1C756.2,868.4 758.2,869.6 763.6,874.1C766.8,876.8 775.7,880.8 778.6,880.8C779,880.8 779.2,879.7 779.1,878.4C778.9,876.6 781.1,869.7 782.4,867.8C782.5,867.7 784.5,868.4 787,869.4C789.4,870.4 804.6,876.2 820.6,882.3C836.7,888.4 850,893.5 850.1,893.6C850.3,893.7 848.9,898.2 847,903.4C845.1,908.7 841.7,918.4 839.3,925C836.4,933.2 834.9,938.7 834.6,942.3L834.1,947.6L823.1,943.9Z"/>
    </g>
    <g id="US.WI" transform="matrix(1,0,0,1,-446.279,-555.352)">
        <path d="M1194.8,1074.1C1179.8,1073.6 1179.5,1073.4 1178.4,1064C1177.3,1054.4 1174.3,1045.5 1171.7,1044.3C1170.8,1043.9 1166.7,1040.5 1162.7,1036.7L1155.3,1029.9L1155.3,1020.7C1155.3,1012.7 1155.5,1011.4 1156.6,1010.7C1161,1008.1 1162.2,1006.4 1162.3,1002.9C1162.4,997.3 1163.2,995.1 1164.8,994.8C1167.5,994.4 1179,990.7 1179.7,990C1180.9,988.8 1181.5,989.2 1181.3,991.2C1181.1,992.7 1181.5,993.3 1183,993.9C1185.4,994.8 1188,997.4 1188.7,999.5C1189.1,1000.8 1190.7,1001.5 1196.5,1003.2C1205.3,1005.7 1216,1009.5 1218.1,1010.9C1220.5,1012.4 1224.9,1020.1 1225.5,1023.7C1225.8,1025.5 1226.4,1026.9 1226.9,1026.9C1228.4,1026.9 1231.2,1023.9 1232.3,1021.2C1233.6,1018.1 1235.2,1017.8 1234.4,1020.7C1234.1,1021.8 1233.9,1023.5 1233.9,1024.5C1234,1025.4 1233.7,1026.2 1233.3,1026.2C1231.7,1026.2 1230.3,1028.7 1229.5,1032.8C1228.4,1038.4 1227.3,1042.8 1226.3,1044.5C1224.3,1048.3 1223.6,1058.2 1224.6,1069.2L1225.1,1075.1L1215.4,1074.9C1210.4,1074.6 1201,1074.3 1194.8,1074.1Z"/>
    </g>
    <g id="US.WV" transform="matrix(1,0,0,1,-446.279,-555.352)">
        <path d="M1322.1,1171.5C1317.3,1169.7 1308.7,1160.2 1308.2,1156C1308,1154.3 1308.5,1152.9 1310.1,1150.9C1311.3,1149.3 1312.3,1147.3 1312.3,1146.3C1312.3,1145.1 1313,1144.3 1314.9,1143.5C1316.9,1142.7 1317.5,1141.9 1317.9,1139.8C1318.5,1136.6 1320.7,1133.9 1324.6,1131.7C1328.3,1129.6 1331.1,1123.1 1331.1,1116.8C1331.1,1111 1332.3,1110.7 1332.9,1116.3C1333.7,1123.1 1334.8,1123.9 1343.3,1123.6L1350.1,1123.4L1350.9,1127.2C1351.6,1130.6 1351.9,1130.9 1353.6,1130.8C1354.6,1130.7 1357.3,1129.3 1359.6,1127.7C1364.6,1124.2 1371.8,1122.3 1374.9,1123.7C1377.1,1124.7 1377.2,1125.3 1375.8,1127.2C1374.8,1128.6 1374.7,1128.6 1371.6,1126.9C1368,1125 1367.4,1125.3 1366.7,1128.9C1366.3,1131.3 1363.1,1134.8 1360.3,1135.9C1359.5,1136.2 1358.8,1137.6 1358.5,1139.9C1357.9,1143.7 1357.8,1143.8 1353,1144.3C1351.2,1144.5 1349.7,1144.8 1349.6,1144.9C1349.5,1145.1 1348.1,1148.4 1346.6,1152.3C1345,1156.2 1342.8,1160.9 1341.6,1162.7C1340.4,1164.5 1339.4,1166.2 1339.4,1166.5C1339.4,1167 1335.2,1168.6 1327.4,1171.2C1325,1171.8 1323.2,1171.9 1322.1,1171.5Z"/>
    </g>
    <g id="US.WY" transform="matrix(1,0,0,1,-446.279,-555.352)">
        <path d="M980,1086.9C976.5,1086.1 971.3,1085 968.4,1084.3C965.5,1083.7 957.4,1081.9 950.4,1080.5C935.7,1077.4 905,1070.9 896.8,1069.1C893.7,1068.4 890.7,1067.9 890.2,1067.9C889.7,1067.9 889.4,1067.4 889.6,1066.7C889.8,1066 890.5,1063.3 891.1,1060.6C891.8,1057.9 892.6,1054.9 893,1053.8C893.4,1052.8 893.9,1050.9 894.1,1049.6C894.5,1047.3 896.7,1037.6 902,1015.9C903.6,1009.3 905.3,1002 905.7,999.7C906.2,997.4 907,994.9 907.5,994.2C908.6,992.8 908.4,992.7 945.5,1000.6C956.9,1003 974.9,1006.8 982.6,1008.4C983,1008.5 987.2,1009.4 991.8,1010.3L1000.3,1012.1L1000,1014.8C999.8,1016.3 997.6,1029.6 995,1044.5C992.5,1059.4 990.2,1072.3 990.1,1073.4C989.6,1076.8 989,1079.7 988.3,1083.8C987.9,1086 987.5,1088 987.5,1088.1C987.5,1088.5 987.2,1088.4 980,1086.9Z"/>
    </g>
</svg>
